<?xml version="1.0" encoding="utf-8"?>
<!-- Generator: Adobe Illustrator 18.1.1, SVG Export Plug-In . SVG Version: 6.00 Build 0)  -->
<!DOCTYPE svg PUBLIC "-//W3C//DTD SVG 1.1//EN" "http://www.w3.org/Graphics/SVG/1.1/DTD/svg11.dtd">
<svg version="1.1" id="Layer_1" xmlns="http://www.w3.org/2000/svg" xmlns:xlink="http://www.w3.org/1999/xlink" x="0px" y="0px"
	 width="32px" height="32px" viewBox="0 0 32 32" enable-background="new 0 0 32 32" xml:space="preserve">
<path d="M32,8.6c-0.1,3.1-2.3,7.4-6.5,12.8c-4.4,5.7-8,8.5-11,8.5c-1.9,0-3.4-1.7-4.7-5.2c-0.9-3.2-1.7-6.3-2.6-9.5
	c-1-3.4-2-5.2-3.1-5.2c-0.2,0-1.1,0.5-2.5,1.5L0,9.6c1.6-1.4,3.1-2.8,4.7-4.2c2.1-1.8,3.7-2.8,4.7-2.9c2.5-0.2,4,1.5,4.6,5.1
	c0.6,3.9,1.1,6.4,1.3,7.3c0.7,3.3,1.5,4.9,2.4,4.9c0.7,0,1.7-1.1,3-3.2c1.3-2.1,2.1-3.7,2.2-4.8c0.2-1.8-0.5-2.7-2.2-2.7
	c-0.8,0-1.6,0.2-2.4,0.5c1.6-5.2,4.6-7.7,9-7.5C30.6,2.3,32.2,4.4,32,8.6z"/>
</svg>
