<svg xmlns="http://www.w3.org/2000/svg" xmlns:xlink="http://www.w3.org/1999/xlink" width="1120" height="200" viewBox="0 0 1120 200">
    <defs>
        <style>
            .upper-arc {
                fill: #F7FAFC;
            }

            .lower-arc {
                fill: #CBD5E0;
            }

            .text {
                fill: #F7FAFC;
            }
        </style>
    </defs>
    <g id="icon" data-name="icon" transform="translate(-130 -127)">
        <path class="upper-arc" d="M120,1656.446h0a223.583,223.583,0,0,1,35.089-56.912,232.776,232.776,0,0,1,30.452-29.952,241.527,241.527,0,0,0,21.609,25.353,285.764,285.764,0,0,0-44.285,24.754A255.184,255.184,0,0,0,120,1656.446ZM558,1656.429a255.467,255.467,0,0,0-42.854-36.741,285.866,285.866,0,0,0-44.3-24.761,241.541,241.541,0,0,0,21.611-25.358,232.727,232.727,0,0,1,30.465,29.962,223.536,223.536,0,0,1,35.08,56.9ZM257.271,1577.5h0a234.54,234.54,0,0,1-28.7-13.321c-6.511-3.574-12.963-7.522-19.176-11.735a239.922,239.922,0,0,1,61.858-27.579,248.479,248.479,0,0,1,135.5,0,239.911,239.911,0,0,1,61.853,27.575c-6.22,4.218-12.675,8.168-19.185,11.741a234.579,234.579,0,0,1-28.694,13.318c-5.56-1.418-11.241-2.7-16.884-3.823a336.521,336.521,0,0,0-129.677,0c-5.648,1.12-11.333,2.407-16.9,3.826Z" transform="translate(9.639 -1359.446)"/>
        <path class="lower-arc" d="M0,102.059l0,0A161.768,161.768,0,0,1,25.525,60.862a169.614,169.614,0,0,1,36.67-32.277,179.217,179.217,0,0,1,194.2,0,169.659,169.659,0,0,1,36.67,32.277,161.679,161.679,0,0,1,25.516,41.187,185.545,185.545,0,0,0-31.174-26.6A209.37,209.37,0,0,0,249.6,55.124a229.072,229.072,0,0,0-43.141-12.98,245.947,245.947,0,0,0-94.322,0,229.109,229.109,0,0,0-43.141,12.98A209.45,209.45,0,0,0,31.18,75.451,185.346,185.346,0,0,0,0,102.059Z" transform="translate(507.932 281.423) rotate(180)"/>
    </g>
    <path id="Pfad_34" data-name="Pfad 34" class="text" d="M135.912,6.757H111.785a11.152,11.152,0,0,1-6.676-1.888A9.75,9.75,0,0,1,101.471.035l-7.92-23.39H42.535L34.616.035a10.368,10.368,0,0,1-3.591,4.65,10.344,10.344,0,0,1-6.538,2.072H.175L52.112-127.414H83.975ZM49.718-44.535H86.369L74.029-81.278q-1.2-3.5-2.809-8.242T68.043-99.788Q66.57-94.171,65-89.382t-2.947,8.288Zm171.835-55.621a11.689,11.689,0,0,1-2.9,3.315,6.491,6.491,0,0,1-3.914,1.105,9.574,9.574,0,0,1-4.558-1.335q-2.44-1.335-5.525-2.993a45.851,45.851,0,0,0-7.045-2.993,28.185,28.185,0,0,0-9.025-1.335q-8.748,0-13.03,3.73a12.689,12.689,0,0,0-4.282,10.084,9.289,9.289,0,0,0,2.578,6.722,22.229,22.229,0,0,0,6.768,4.6,72.552,72.552,0,0,0,9.577,3.545q5.387,1.612,11,3.591a98.412,98.412,0,0,1,11,4.65,36.7,36.7,0,0,1,9.577,6.814,31.805,31.805,0,0,1,6.768,10.084,35.854,35.854,0,0,1,2.578,14.32,46.66,46.66,0,0,1-3.223,17.4A40.751,40.751,0,0,1,218.56-4.708a43.385,43.385,0,0,1-15.1,9.485,56.5,56.5,0,0,1-20.4,3.453,65.379,65.379,0,0,1-12.754-1.289A75.743,75.743,0,0,1,157.737,3.3a72.892,72.892,0,0,1-11.419-5.571,48.518,48.518,0,0,1-9.3-7.183L146.226-24a7.5,7.5,0,0,1,2.855-2.671,8.088,8.088,0,0,1,3.96-1.013,10.483,10.483,0,0,1,5.571,1.75q2.809,1.75,6.354,3.868a51.71,51.71,0,0,0,8.15,3.868,30.558,30.558,0,0,0,10.866,1.75q8.472,0,13.168-3.73t4.7-11.833a11.184,11.184,0,0,0-2.578-7.643,19.92,19.92,0,0,0-6.768-4.881,62.36,62.36,0,0,0-9.531-3.407q-5.341-1.473-10.958-3.269a80.171,80.171,0,0,1-10.958-4.42,34.584,34.584,0,0,1-9.531-6.907,32.319,32.319,0,0,1-6.768-10.682,42.414,42.414,0,0,1-2.578-15.793,37.473,37.473,0,0,1,3.039-14.734,38.033,38.033,0,0,1,8.932-12.8,43.921,43.921,0,0,1,14.458-8.979,53.4,53.4,0,0,1,19.615-3.361,73.551,73.551,0,0,1,12.017.967,63.171,63.171,0,0,1,11.1,2.855,60.936,60.936,0,0,1,9.807,4.512,45.219,45.219,0,0,1,8.15,5.94ZM368.34-60.374a70.355,70.355,0,0,1-5.019,26.843,62.8,62.8,0,0,1-14.135,21.272,64.111,64.111,0,0,1-21.963,14,77.718,77.718,0,0,1-28.5,5.019H246.6V-127.414h52.121a77.088,77.088,0,0,1,28.5,5.065,65.034,65.034,0,0,1,21.963,14,62.312,62.312,0,0,1,14.135,21.226A70.107,70.107,0,0,1,368.34-60.374Zm-31.862,0A58.453,58.453,0,0,0,333.9-78.332a38.364,38.364,0,0,0-7.413-13.583,32.192,32.192,0,0,0-11.833-8.564,40.176,40.176,0,0,0-15.931-2.993H277.911v86.286h20.812a40.176,40.176,0,0,0,15.931-2.993,32.192,32.192,0,0,0,11.833-8.564A38.364,38.364,0,0,0,333.9-42.325,58.782,58.782,0,0,0,336.478-60.374Zm77.906,17.5V6.757H383.258V-127.414h43.649q14.55,0,24.818,2.993a46.594,46.594,0,0,1,16.76,8.334,31.543,31.543,0,0,1,9.439,12.616,41.8,41.8,0,0,1,2.947,15.839,42.52,42.52,0,0,1-1.75,12.34,37.366,37.366,0,0,1-5.2,10.728,40.265,40.265,0,0,1-8.472,8.794,44.986,44.986,0,0,1-11.557,6.354,29.257,29.257,0,0,1,5.848,3.868,23.014,23.014,0,0,1,4.742,5.617L493.027,6.757H464.848q-7.827,0-11.235-5.894L431.328-38.089a9.381,9.381,0,0,0-3.453-3.684,11.555,11.555,0,0,0-5.571-1.105Zm0-21.456h12.524a32.023,32.023,0,0,0,10.82-1.612,19.551,19.551,0,0,0,7.321-4.466,17.009,17.009,0,0,0,4.144-6.676,25.624,25.624,0,0,0,1.289-8.242q0-8.84-5.755-13.813t-17.819-4.973H414.384Zm219.168,3.96A72.108,72.108,0,0,1,628.533-33.3,65.252,65.252,0,0,1,614.4-11.522a64.822,64.822,0,0,1-21.963,14.5,74.688,74.688,0,0,1-28.5,5.249,75.038,75.038,0,0,1-28.547-5.249,65.218,65.218,0,0,1-22.055-14.5A64.9,64.9,0,0,1,499.15-33.3a72.109,72.109,0,0,1-5.019-27.074,72.109,72.109,0,0,1,5.019-27.074,64.4,64.4,0,0,1,14.181-21.733,65.568,65.568,0,0,1,22.055-14.458,75.039,75.039,0,0,1,28.547-5.249,74.116,74.116,0,0,1,28.5,5.3,65.736,65.736,0,0,1,21.963,14.5,64.748,64.748,0,0,1,14.135,21.733A71.858,71.858,0,0,1,633.552-60.374Zm-31.862,0a58.01,58.01,0,0,0-2.578-17.911A37.933,37.933,0,0,0,591.7-91.776a31.97,31.97,0,0,0-11.833-8.472,40.726,40.726,0,0,0-15.931-2.947,41.323,41.323,0,0,0-16.069,2.947,31.889,31.889,0,0,0-11.879,8.472,37.934,37.934,0,0,0-7.413,13.491,58.012,58.012,0,0,0-2.578,17.911,58.34,58.34,0,0,0,2.578,18,37.933,37.933,0,0,0,7.413,13.491,31.442,31.442,0,0,0,11.879,8.426,41.9,41.9,0,0,0,16.069,2.9,41.3,41.3,0,0,0,15.931-2.9A31.518,31.518,0,0,0,591.7-28.881a37.933,37.933,0,0,0,7.413-13.491A58.338,58.338,0,0,0,601.69-60.374Z" transform="translate(486.448 159.888)"/>
</svg>
