<svg version="1.1" id="Ebene_1" xmlns="http://www.w3.org/2000/svg" xmlns:xlink="http://www.w3.org/1999/xlink" x="0px" y="0px"
	 width="398.284" height="55.389" viewBox="0 0 398.284 55.389">
<g>
	<path fill="#FFFFFF" d="M252.247,1.275h16.288c15.224,0,25.27,10.655,25.27,26.258v0.608c0,15.604-10.046,26.411-25.27,26.411
		h-16.288V1.275z M261.076,9.267v37.295h7.383c9.742,0,16.212-6.927,16.212-18.344v-0.456c0-11.493-6.47-18.495-16.212-18.495
		H261.076z"/>
	<path fill="#FFFFFF" d="M351.095,28.37v-0.76c0-15.831,9.743-27.171,23.67-27.171c13.853,0,23.52,11.263,23.52,27.018v0.761
		c0,15.833-9.742,27.171-23.671,27.171C360.761,55.389,351.095,44.125,351.095,28.37 M389.15,28.218v-0.532
		c0-11.417-6.089-19.104-14.537-19.104c-8.373,0-14.386,7.534-14.386,19.028v0.532c0,11.417,6.165,19.104,14.537,19.104
		C383.138,47.246,389.15,39.711,389.15,28.218"/>
	<path fill="#FFFFFF" d="M205.709,40.331c3.957,3.578,13.967,6.315,19.599,6.315c5.099,0,8.371-2.815,8.371-6.773v-0.076
		c0-3.347-1.751-5.555-10.198-8.674c-10.12-3.805-15.371-7.534-15.371-16.057v-0.152C208.109,6.164,215.11,0,225.003,0
		c14.853,0,15.56,11.377,15.56,11.377c-4.005-2.398-10.777-3.4-15.787-3.389c-4.795,0.012-7.764,2.665-7.764,6.165v0.075
		c0,3.73,1.979,5.707,11.035,9.207c9.893,3.807,14.458,7.917,14.458,15.678v0.153c0,9.359-7.306,15.369-17.274,15.369
		C210.492,54.635,205.709,40.331,205.709,40.331"/>
	<path fill="#FFFFFF" d="M304.72,1.277h19.256c6.088,0,11.035,1.827,14.232,5.023c2.816,2.816,4.415,6.851,4.415,11.722v0.304
		c0,8.218-4.567,13.318-11.036,15.601l12.559,20.627l-5.098,0.081c-4.326-0.044-6.203-2.842-8.892-7.279
		c-2.354-3.887-7.552-11.677-7.552-11.677c-0.151,0.074-0.379,0.074-0.531,0.074h-8.525v18.801h-8.828V1.277z M323.062,27.839
		c6.851,0,10.656-3.653,10.656-9.209v-0.152c0-6.013-3.883-9.134-10.504-9.134h-9.666v18.495H323.062z"/>
	<path fill="#FFFFFF" d="M184.357,1.161h-8.543l-19.604,53.447l5.098,0.082c4.326-0.045,4.989-2.303,6.729-7.19l1.84-5.225h20.419
		l1.84,5.225c1.739,4.888,2.401,7.146,6.728,7.19l5.098-0.082L184.357,1.161z M172.644,34.418l7.442-21.13l7.443,21.13H172.644z"/>
</g>
<path fill="#FFFFFF" d="M19.628,12.948c9.361,19.501,29.116,32,50.846,32c21.733,0,41.488-12.498,50.853-32
	c-13.756,13.158-31.739,20.381-50.853,20.381C51.364,33.329,33.384,26.106,19.628,12.948"/>
<path fill="#FFFFFF" d="M110.154,29.592c11.306,4.813,21.732,11.711,30.797,20.505c-5.469-11.672-13.631-21.55-23.541-29.042
	C115.263,24.153,112.83,27.007,110.154,29.592"/>
<path fill="#FFFFFF" d="M40.263,26.117c9.653-3.002,19.81-4.565,30.214-4.565c10.402,0,20.561,1.563,30.213,4.565
	c4.58-2.086,8.948-4.652,13.039-7.679C101.177,10.043,86.207,5.291,70.477,5.291s-30.701,4.753-43.252,13.146
	C31.316,21.462,35.683,24.03,40.263,26.117"/>
<path fill="#FFFFFF" d="M23.543,21.054C13.633,28.546,5.471,38.425,0,50.098c9.065-8.795,19.492-15.692,30.799-20.507
	C28.123,27.007,25.689,24.153,23.543,21.054"/>
</svg>
