<?xml version="1.0" standalone="no"?>
<!DOCTYPE svg PUBLIC "-//W3C//DTD SVG 20010904//EN"
 "http://www.w3.org/TR/2001/REC-SVG-20010904/DTD/svg10.dtd">
<svg version="1.0" xmlns="http://www.w3.org/2000/svg"
 width="700.000000pt" height="700.000000pt" viewBox="0 0 700.000000 700.000000"
 preserveAspectRatio="xMidYMid meet">
<metadata>
Created by potrace 1.14, written by Peter Selinger 2001-2017
</metadata>
<g transform="translate(0.000000,700.000000) scale(0.100000,-0.100000)"
fill="#000000" stroke="none">
<path d="M3337 4574 c-1 -1 -47 -4 -102 -8 -123 -8 -158 -12 -315 -37 -133
-21 -269 -47 -280 -54 -4 -2 -21 -7 -39 -10 -49 -8 -191 -50 -324 -96 -242
-82 -488 -199 -732 -347 -118 -71 -126 -77 -117 -87 31 -34 -168 127 -271 219
-73 65 -79 68 -102 56 l-24 -13 31 -61 c17 -33 48 -90 69 -124 22 -35 39 -66
39 -69 0 -6 62 -95 77 -111 7 -7 13 -16 13 -19 0 -4 -3 -3 -7 0 -7 8 -45 -19
-143 -101 -257 -215 -490 -468 -682 -742 -99 -141 -253 -407 -294 -506 l-16
-39 68 65 c38 36 71 68 74 71 18 19 221 186 268 221 31 23 59 44 62 48 3 3 28
22 55 41 28 18 52 36 55 39 17 17 178 121 306 198 141 85 391 215 531 277 l62
27 50 -47 c27 -26 92 -81 143 -122 429 -342 949 -548 1493 -590 227 -18 549 0
725 39 25 5 56 12 70 14 189 34 494 146 699 256 127 68 337 200 361 227 3 4
32 26 65 51 33 25 127 110 210 190 82 79 115 108 73 64 -43 -44 -78 -82 -78
-85 0 -4 21 -14 48 -24 48 -19 326 -154 397 -195 221 -125 409 -249 593 -389
64 -49 126 -98 137 -108 12 -10 50 -43 85 -73 63 -52 151 -133 192 -175 20
-20 20 -20 3 20 -58 142 -248 452 -389 635 -191 249 -434 496 -657 670 -35 26
-66 47 -70 44 -3 -2 19 36 51 84 32 48 83 135 114 193 l56 107 -24 15 c-23 15
-25 15 -62 -21 -70 -68 -343 -294 -312 -257 21 24 -363 238 -627 350 -171 73
-480 172 -620 199 -11 2 -55 11 -97 20 -42 9 -94 18 -115 21 -21 3 -49 8 -63
10 -44 8 -84 13 -142 19 -32 3 -84 9 -115 12 -53 6 -450 13 -456 8z m-1851
-675 c3 -6 -5 -3 -20 6 -14 10 -26 19 -26 22 0 7 39 -17 46 -28z m4074 28 c0
-2 -20 -18 -45 -36 -25 -18 -45 -30 -45 -27 0 4 81 66 87 66 2 0 3 -1 3 -3z
m-3970 -104 c0 -8 -38 17 -51 33 -9 11 -2 9 19 -6 17 -13 32 -25 32 -27z
m3795 -19 c-26 -20 -55 -36 -55 -30 0 5 63 46 70 46 3 -1 -4 -8 -15 -16z
m-3744 -11 c13 -16 12 -17 -3 -4 -10 7 -18 15 -18 17 0 8 8 3 21 -13z m2154
-7 c66 -3 129 -8 140 -10 11 -2 54 -7 95 -10 41 -4 89 -9 105 -11 96 -15 223
-35 241 -39 12 -2 38 -7 57 -10 91 -14 288 -63 466 -114 l65 -18 -120 -51
c-179 -75 -503 -175 -639 -196 -28 -5 -119 -21 -174 -32 -13 -2 -56 -7 -95
-11 -39 -3 -73 -8 -76 -10 -9 -4 -270 -16 -369 -17 -86 0 -299 11 -356 18 -16
2 -52 7 -80 10 -93 12 -120 16 -175 26 -30 6 -64 12 -75 14 -60 9 -287 69
-405 108 -136 44 -414 156 -407 164 3 2 16 -2 31 -8 21 -10 38 -8 98 9 93 26
255 69 288 76 14 2 69 14 122 25 53 11 118 23 145 27 26 3 50 8 53 9 3 2 33 7
65 10 33 4 68 9 79 11 10 2 51 6 90 10 39 3 82 7 96 10 14 2 86 6 160 10 74 3
136 7 137 8 4 4 326 -2 438 -8z m-2500 -26 c10 -11 16 -20 13 -20 -3 0 -13 9
-23 20 -10 11 -16 20 -13 20 3 0 13 -9 23 -20z m405 -6 c0 -2 -9 0 -20 6 -11
6 -20 13 -20 16 0 2 9 0 20 -6 11 -6 20 -13 20 -16z m3620 11 c0 -2 -13 -11
-30 -20 -38 -19 -40 -11 -2 9 31 17 32 18 32 11z m400 1 c0 -2 -8 -10 -17 -17
-16 -13 -17 -12 -4 4 13 16 21 21 21 13z m-3985 -26 c3 -6 -1 -7 -9 -4 -18 7
-21 14 -7 14 6 0 13 -4 16 -10z m-404 -27 c13 -16 12 -17 -3 -4 -10 7 -18 15
-18 17 0 8 8 3 21 -13z m4340 -11 c-11 -16 -28 -35 -38 -43 -9 -8 -2 5 17 29
38 48 52 57 21 14z m-3867 -11 c-2 -3 -12 3 -22 13 -16 17 -16 18 5 5 12 -7
20 -15 17 -18z m3416 14 c0 -2 -18 -14 -40 -25 -22 -11 -40 -18 -40 -15 0 2
17 13 38 24 42 23 42 23 42 16z m-3855 -35 c10 -11 16 -20 13 -20 -3 0 -13 9
-23 20 -10 11 -16 20 -13 20 3 0 13 -9 23 -20z m480 2 c-3 -3 -11 0 -18 7 -9
10 -8 11 6 5 10 -3 15 -9 12 -12z m40 -20 c-3 -3 -11 0 -18 7 -9 10 -8 11 6 5
10 -3 15 -9 12 -12z m3245 4 c0 -2 -7 -7 -16 -10 -8 -3 -12 -2 -9 4 6 10 25
14 25 6z m-3714 -48 l29 -33 -32 29 c-18 17 -33 31 -33 33 0 8 8 1 36 -29z
m3664 27 c0 -2 -13 -11 -30 -20 -38 -19 -40 -11 -2 9 31 17 32 18 32 11z m540
2 c0 -2 -15 -16 -32 -33 l-33 -29 29 33 c28 30 36 37 36 29z m-3654 -23 c18
-14 18 -14 -6 -3 -31 14 -36 19 -24 19 6 0 19 -7 30 -16z m3034 -24 c-8 -5
-19 -10 -25 -10 -5 0 -3 5 5 10 8 5 20 10 25 10 6 0 3 -5 -5 -10z m-3470 -107
c0 -8 -9 0 -50 45 l-45 47 48 -45 c26 -24 47 -45 47 -47z m40 -38 c13 -14 21
-25 18 -25 -2 0 -15 11 -28 25 -13 14 -21 25 -18 25 2 0 15 -11 28 -25z"/>
</g>
</svg>
