<svg id="f62fb22a-6085-4612-8ae6-3595732df09a" data-name="Layer 1" xmlns="http://www.w3.org/2000/svg" width="920.4182" height="560.80333" viewBox="0 0 920.4182 560.80333"><title>town</title><rect x="84.2091" y="392.40166" width="163" height="6" fill="#f2f2f2"/><rect x="453.2091" y="392.40166" width="163" height="6" fill="#f2f2f2"/><rect x="704.2091" y="392.40166" width="163" height="6" fill="#f2f2f2"/><path d="M1007.95553,471.11687a19.8,19.8,0,0,0-4.148,2.867,19.742,19.742,0,0,0-4.21608-2.867,19.80023,19.80023,0,0,0-4.148,2.867,19.74178,19.74178,0,0,0-4.21607-2.867s-6.50164,3.19763-6.48362,7.10505q.0006.14657.01332.2916c.22192,2.55828,6.94384,3.21014,10.6365,2.00449a15.247,15.247,0,0,0,8.36405,0c3.67688,1.22494,10.53552.52316,10.736-2.06447q.01126-.14511.01067-.2917C1014.48637,474.25441,1007.95553,471.11687,1007.95553,471.11687Z" transform="translate(-139.7909 -169.59834)" fill="#f2f2f2"/><polygon points="6.972 167.108 1.204 162.494 33.501 133.658 115.397 133.658 115.397 159.034 62.338 194.791 6.972 167.108" fill="#3f3d56"/><polygon points="130.329 149.833 130.329 134.234 119.456 134.234 119.456 138.054 115.397 133.658 88.868 162.494 78.487 169.415 62.39 287.016 86.665 311.291 143.081 311.291 143.081 163.648 130.329 149.833" fill="#ccc"/><rect x="1.20428" y="162.49427" width="87.66345" height="148.79717" fill="#f2f2f2"/><rect x="35.23154" y="274.95725" width="16.14853" height="36.33419" fill="#ccc"/><polygon points="17.93 285.338 17.93 279.571 11.009 279.571 11.009 285.338 17.353 285.338 17.93 285.338" fill="#3f3d56"/><polygon points="17.353 289.952 11.009 289.952 11.009 295.72 17.93 295.72 17.93 289.952 17.353 289.952" fill="#3f3d56"/><rect x="22.54341" y="279.57111" width="6.9208" height="5.76733" fill="#3f3d56"/><rect x="22.54341" y="289.95231" width="6.9208" height="5.76733" fill="#3f3d56"/><polygon points="65.222 285.338 65.222 279.571 58.301 279.571 58.301 285.338 64.645 285.338 65.222 285.338" fill="#3f3d56"/><polygon points="64.645 289.952 58.301 289.952 58.301 295.72 65.222 295.72 65.222 289.952 64.645 289.952" fill="#3f3d56"/><rect x="69.83553" y="279.57111" width="6.9208" height="5.76733" fill="#3f3d56"/><rect x="69.83553" y="289.95231" width="6.9208" height="5.76733" fill="#3f3d56"/><polygon points="113.667 169.992 113.667 164.224 106.746 164.224 106.746 169.992 113.091 169.992 113.667 169.992" fill="#3f3d56"/><polygon points="113.091 174.606 106.746 174.606 106.746 180.373 113.667 180.373 113.667 174.606 113.091 174.606" fill="#3f3d56"/><rect x="118.28112" y="164.22447" width="6.9208" height="5.76733" fill="#3f3d56"/><rect x="118.28112" y="174.60567" width="6.9208" height="5.76733" fill="#3f3d56"/><polygon points="113.667 202.289 113.667 196.522 106.746 196.522 106.746 202.289 113.091 202.289 113.667 202.289" fill="#3f3d56"/><polygon points="113.091 206.903 106.746 206.903 106.746 212.67 113.667 212.67 113.667 206.903 113.091 206.903" fill="#3f3d56"/><rect x="118.28112" y="196.52153" width="6.9208" height="5.76733" fill="#3f3d56"/><rect x="118.28112" y="206.90273" width="6.9208" height="5.76733" fill="#3f3d56"/><polygon points="113.667 234.586 113.667 228.819 106.746 228.819 106.746 234.586 113.091 234.586 113.667 234.586" fill="#3f3d56"/><polygon points="113.091 239.2 106.746 239.2 106.746 244.967 113.667 244.967 113.667 239.2 113.091 239.2" fill="#3f3d56"/><rect x="118.28112" y="228.81859" width="6.9208" height="5.76733" fill="#3f3d56"/><rect x="118.28112" y="239.19979" width="6.9208" height="5.76733" fill="#3f3d56"/><polygon points="113.667 266.883 113.667 261.116 106.746 261.116 106.746 266.883 113.091 266.883 113.667 266.883" fill="#3f3d56"/><polygon points="113.091 271.497 106.746 271.497 106.746 277.264 113.667 277.264 113.667 271.497 113.091 271.497" fill="#3f3d56"/><rect x="118.28112" y="261.11565" width="6.9208" height="5.76733" fill="#3f3d56"/><rect x="118.28112" y="271.49685" width="6.9208" height="5.76733" fill="#3f3d56"/><rect x="11.00875" y="169.9918" width="66.90105" height="13.8416" fill="#3f3d56"/><rect x="11.00875" y="197.675" width="66.90105" height="13.8416" fill="#3f3d56"/><rect x="11.00875" y="225.35819" width="66.90105" height="13.8416" fill="#3f3d56"/><rect x="11.00875" y="253.04138" width="66.90105" height="13.8416" fill="#3f3d56"/><path d="M277.9954,471.95328a19.80041,19.80041,0,0,0-4.148,2.867,19.742,19.742,0,0,0-4.21607-2.867,19.80041,19.80041,0,0,0-4.148,2.867,19.742,19.742,0,0,0-4.21607-2.867s-6.50164,3.19762-6.48362,7.10505q.0006.14657.01332.2916c.22191,2.55827,6.94384,3.21013,10.6365,2.00448a15.2468,15.2468,0,0,0,8.36405,0c3.67688,1.225,10.53552.52316,10.736-2.06447q.01126-.14511.01067-.2917C284.52624,475.09082,277.9954,471.95328,277.9954,471.95328Z" transform="translate(-139.7909 -169.59834)" fill="#ff6366"/><polygon points="108.177 167.108 102.409 162.494 134.706 133.658 216.602 133.658 216.602 159.034 163.543 194.791 108.177 167.108" fill="#3f3d56"/><polygon points="231.534 149.833 231.534 134.234 220.661 134.234 220.661 138.054 216.602 133.658 190.073 162.494 179.692 169.415 163.595 287.016 187.87 311.291 244.286 311.291 244.286 163.648 231.534 149.833" fill="#ccc"/><rect x="102.40931" y="162.49427" width="87.66345" height="148.79717" fill="#f2f2f2"/><rect x="136.43657" y="274.95725" width="16.14853" height="36.33419" fill="#ccc"/><polygon points="119.135 285.338 119.135 279.571 112.214 279.571 112.214 285.338 118.558 285.338 119.135 285.338" fill="#3f3d56"/><polygon points="118.558 289.952 112.214 289.952 112.214 295.72 119.135 295.72 119.135 289.952 118.558 289.952" fill="#3f3d56"/><rect x="123.74844" y="279.57111" width="6.9208" height="5.76733" fill="#3f3d56"/><rect x="123.74844" y="289.95231" width="6.9208" height="5.76733" fill="#3f3d56"/><polygon points="166.427 285.338 166.427 279.571 159.506 279.571 159.506 285.338 165.85 285.338 166.427 285.338" fill="#3f3d56"/><polygon points="165.85 289.952 159.506 289.952 159.506 295.72 166.427 295.72 166.427 289.952 165.85 289.952" fill="#3f3d56"/><rect x="171.04056" y="279.57111" width="6.9208" height="5.76733" fill="#3f3d56"/><rect x="171.04056" y="289.95231" width="6.9208" height="5.76733" fill="#3f3d56"/><polygon points="214.872 169.992 214.872 164.224 207.951 164.224 207.951 169.992 214.296 169.992 214.872 169.992" fill="#3f3d56"/><polygon points="214.296 174.606 207.951 174.606 207.951 180.373 214.872 180.373 214.872 174.606 214.296 174.606" fill="#3f3d56"/><rect x="219.48615" y="164.22447" width="6.9208" height="5.76733" fill="#3f3d56"/><rect x="219.48615" y="174.60567" width="6.9208" height="5.76733" fill="#3f3d56"/><polygon points="214.872 202.289 214.872 196.522 207.951 196.522 207.951 202.289 214.296 202.289 214.872 202.289" fill="#3f3d56"/><polygon points="214.296 206.903 207.951 206.903 207.951 212.67 214.872 212.67 214.872 206.903 214.296 206.903" fill="#3f3d56"/><rect x="219.48615" y="196.52153" width="6.9208" height="5.76733" fill="#3f3d56"/><rect x="219.48615" y="206.90273" width="6.9208" height="5.76733" fill="#3f3d56"/><polygon points="214.872 234.586 214.872 228.819 207.951 228.819 207.951 234.586 214.296 234.586 214.872 234.586" fill="#3f3d56"/><polygon points="214.296 239.2 207.951 239.2 207.951 244.967 214.872 244.967 214.872 239.2 214.296 239.2" fill="#3f3d56"/><rect x="219.48615" y="228.81859" width="6.9208" height="5.76733" fill="#3f3d56"/><rect x="219.48615" y="239.19979" width="6.9208" height="5.76733" fill="#3f3d56"/><polygon points="214.872 266.883 214.872 261.116 207.951 261.116 207.951 266.883 214.296 266.883 214.872 266.883" fill="#3f3d56"/><polygon points="214.296 271.497 207.951 271.497 207.951 277.264 214.872 277.264 214.872 271.497 214.296 271.497" fill="#3f3d56"/><rect x="219.48615" y="261.11565" width="6.9208" height="5.76733" fill="#3f3d56"/><rect x="219.48615" y="271.49685" width="6.9208" height="5.76733" fill="#3f3d56"/><rect x="112.21378" y="169.9918" width="66.90105" height="13.8416" fill="#3f3d56"/><rect x="112.21378" y="197.675" width="66.90105" height="13.8416" fill="#3f3d56"/><rect x="112.21378" y="225.35819" width="66.90105" height="13.8416" fill="#3f3d56"/><rect x="112.21378" y="253.04138" width="66.90105" height="13.8416" fill="#3f3d56"/><circle cx="121.74844" cy="28.64078" r="28.64078" fill="#ff6584"/><rect x="302.51173" y="200.4493" width="2.79288" height="110.31858" fill="#3f3d56"/><path d="M472.3502,402.15364q.00839,1.82036-.03361,3.62324c-1.00149,43.42714-53.06593,43.6671-54.46768.251q-.05819-1.80219-.067-3.62278c-.22373-48.54284,26.879-88.02034,26.879-88.02034S472.12647,353.6108,472.3502,402.15364Z" transform="translate(-139.7909 -169.59834)" fill="#e6e6e6"/><path d="M435.38214,471.70874a19.8,19.8,0,0,0-4.148,2.867,19.74242,19.74242,0,0,0-4.21608-2.867,19.80023,19.80023,0,0,0-4.148,2.867,19.74222,19.74222,0,0,0-4.21607-2.867s-6.50164,3.19763-6.48362,7.10506q.0006.14657.01332.29159c.22191,2.55828,6.94384,3.21014,10.6365,2.00449a15.2469,15.2469,0,0,0,8.364,0c3.67688,1.225,10.53552.52316,10.736-2.06447q.01127-.14511.01067-.2917C441.913,474.84628,435.38214,471.70874,435.38214,471.70874Z" transform="translate(-139.7909 -169.59834)" fill="#ccc"/><polygon points="373.739 263.999 370.279 258.232 402.576 205.457 485.625 205.457 485.625 213.531 455.635 270.92 421.031 277.841 373.739 263.999" fill="#3f3d56"/><polygon points="499.921 246.794 499.921 203.655 489.048 203.655 489.048 209.346 485.625 205.457 457.942 258.232 453.328 262.846 447.561 285.915 457.942 311.291 511.001 311.291 511.001 259.385 499.921 246.794" fill="#ccc"/><rect x="370.27859" y="258.23198" width="87.66345" height="53.05945" fill="#f2f2f2"/><rect x="427.37517" y="274.95725" width="18.45546" height="16.14853" fill="#3f3d56"/><rect x="403.72911" y="274.38051" width="16.14853" height="36.91092" fill="#ccc"/><polygon points="385.274 280.148 385.274 274.381 378.353 274.381 378.353 280.148 384.697 280.148 385.274 280.148" fill="#3f3d56"/><polygon points="384.697 284.762 378.353 284.762 378.353 290.529 385.274 290.529 385.274 284.762 384.697 284.762" fill="#3f3d56"/><rect x="389.88751" y="274.38051" width="6.9208" height="5.76733" fill="#3f3d56"/><rect x="389.88751" y="284.76171" width="6.9208" height="5.76733" fill="#3f3d56"/><polygon points="482.742 281.561 482.742 275.794 475.821 275.794 475.821 281.561 482.165 281.561 482.742 281.561" fill="#3f3d56"/><polygon points="482.165 286.175 475.821 286.175 475.821 291.942 482.742 291.942 482.742 286.175 482.165 286.175" fill="#3f3d56"/><rect x="487.35542" y="275.79365" width="6.9208" height="5.76733" fill="#3f3d56"/><rect x="487.35542" y="286.17485" width="6.9208" height="5.76733" fill="#3f3d56"/><polygon points="410.036 227.148 409.125 225.631 417.623 211.745 439.474 211.745 439.474 213.869 431.584 228.969 422.479 230.79 410.036 227.148" fill="#3f3d56"/><polygon points="439.474 211.745 432.191 225.631 430.977 226.845 429.459 232.915 432.191 239.591 446.151 239.591 446.151 225.934 439.474 211.745" fill="#ccc"/><rect x="409.12533" y="225.63077" width="23.06522" height="13.96053" fill="#f2f2f2"/><polygon points="418.897 231.647 418.897 228.893 415.593 228.893 415.593 231.647 418.622 231.647 418.897 231.647" fill="#3f3d56"/><polygon points="418.622 233.85 415.593 233.85 415.593 236.603 418.897 236.603 418.897 233.85 418.622 233.85" fill="#3f3d56"/><rect x="421.10008" y="228.89288" width="3.30446" height="2.75372" fill="#3f3d56"/><rect x="421.10008" y="233.84957" width="3.30446" height="2.75372" fill="#3f3d56"/><polygon points="478.29 263.999 474.829 258.232 507.126 205.457 590.176 205.457 590.176 213.531 560.186 270.92 525.582 277.841 478.29 263.999" fill="#3f3d56"/><polygon points="604.472 246.794 604.472 203.655 593.599 203.655 593.599 209.346 590.176 205.457 562.493 258.232 557.879 262.846 552.111 285.915 562.493 311.291 615.552 311.291 615.552 259.385 604.472 246.794" fill="#ccc"/><rect x="474.82923" y="258.23197" width="87.66345" height="53.05945" fill="#f2f2f2"/><rect x="531.92582" y="274.95723" width="18.45546" height="16.14853" fill="#3f3d56"/><rect x="508.27976" y="274.3805" width="16.14853" height="36.91092" fill="#ccc"/><polygon points="489.824 280.148 489.824 274.38 482.903 274.38 482.903 280.148 489.248 280.148 489.824 280.148" fill="#3f3d56"/><polygon points="489.248 284.762 482.903 284.762 482.903 290.529 489.824 290.529 489.824 284.762 489.248 284.762" fill="#3f3d56"/><rect x="494.43816" y="274.3805" width="6.9208" height="5.76733" fill="#3f3d56"/><rect x="494.43816" y="284.7617" width="6.9208" height="5.76733" fill="#3f3d56"/><polygon points="587.292 280.725 587.292 274.957 580.371 274.957 580.371 280.725 586.715 280.725 587.292 280.725" fill="#3f3d56"/><polygon points="586.715 285.338 580.371 285.338 580.371 291.106 587.292 291.106 587.292 285.338 586.715 285.338" fill="#3f3d56"/><rect x="591.90607" y="274.95723" width="6.9208" height="5.76733" fill="#3f3d56"/><rect x="591.90607" y="285.33843" width="6.9208" height="5.76733" fill="#3f3d56"/><polygon points="579.495 263.999 576.034 258.232 608.331 205.457 691.381 205.457 691.381 213.531 661.391 270.92 626.787 277.841 579.495 263.999" fill="#3f3d56"/><polygon points="705.677 246.794 705.677 203.655 694.804 203.655 694.804 209.346 691.381 205.457 663.698 258.232 659.084 262.846 653.316 285.915 663.698 311.291 716.757 311.291 716.757 259.385 705.677 246.794" fill="#ccc"/><rect x="576.03426" y="258.23197" width="87.66345" height="53.05945" fill="#f2f2f2"/><rect x="633.13085" y="274.95723" width="18.45546" height="16.14853" fill="#3f3d56"/><rect x="609.48479" y="274.3805" width="16.14853" height="36.91092" fill="#ccc"/><polygon points="591.029 280.148 591.029 274.38 584.109 274.38 584.109 280.148 590.453 280.148 591.029 280.148" fill="#3f3d56"/><polygon points="590.453 284.762 584.109 284.762 584.109 290.529 591.029 290.529 591.029 284.762 590.453 284.762" fill="#3f3d56"/><rect x="595.64319" y="274.3805" width="6.9208" height="5.76733" fill="#3f3d56"/><rect x="595.64319" y="284.7617" width="6.9208" height="5.76733" fill="#3f3d56"/><polygon points="688.497 280.725 688.497 274.957 681.576 274.957 681.576 280.725 687.921 280.725 688.497 280.725" fill="#3f3d56"/><polygon points="687.921 285.338 681.576 285.338 681.576 291.106 688.497 291.106 688.497 285.338 687.921 285.338" fill="#3f3d56"/><rect x="693.1111" y="274.95723" width="6.9208" height="5.76733" fill="#3f3d56"/><rect x="693.1111" y="285.33843" width="6.9208" height="5.76733" fill="#3f3d56"/><polygon points="512.077 227.985 511.167 226.467 519.664 212.581 541.516 212.581 541.516 214.706 533.625 229.806 524.52 231.626 512.077 227.985" fill="#3f3d56"/><polygon points="541.516 212.581 534.232 226.467 533.018 227.681 531.501 233.751 534.232 240.428 548.193 240.428 548.193 226.771 541.516 212.581" fill="#ccc"/><rect x="511.16676" y="226.46716" width="23.06522" height="13.96053" fill="#f2f2f2"/><polygon points="520.939 232.483 520.939 229.729 517.634 229.729 517.634 232.483 520.663 232.483 520.939 232.483" fill="#3f3d56"/><polygon points="520.663 234.686 517.634 234.686 517.634 237.44 520.939 237.44 520.939 234.686 520.663 234.686" fill="#3f3d56"/><rect x="523.14151" y="229.72928" width="3.30446" height="2.75372" fill="#3f3d56"/><rect x="523.14151" y="234.68596" width="3.30446" height="2.75372" fill="#3f3d56"/><polygon points="614.119 227.148 613.208 225.631 621.706 211.745 643.557 211.745 643.557 213.869 635.666 228.969 626.562 230.79 614.119 227.148" fill="#3f3d56"/><polygon points="643.557 211.745 636.273 225.631 635.059 226.845 633.542 232.915 636.273 239.591 650.234 239.591 650.234 225.934 643.557 211.745" fill="#ccc"/><rect x="613.20819" y="225.63076" width="23.06522" height="13.96053" fill="#f2f2f2"/><polygon points="622.98 231.647 622.98 228.893 619.676 228.893 619.676 231.647 622.705 231.647 622.98 231.647" fill="#3f3d56"/><polygon points="622.705 233.85 619.676 233.85 619.676 236.603 622.98 236.603 622.98 233.85 622.705 233.85" fill="#3f3d56"/><rect x="625.18295" y="228.89287" width="3.30446" height="2.75372" fill="#3f3d56"/><rect x="625.18295" y="233.84956" width="3.30446" height="2.75372" fill="#3f3d56"/><polygon points="684.045 263.999 680.585 258.232 712.882 205.457 795.932 205.457 795.932 213.531 765.941 270.92 731.337 277.841 684.045 263.999" fill="#3f3d56"/><polygon points="810.228 212.859 810.228 203.655 799.354 203.655 799.354 209.346 795.932 205.457 768.248 258.232 763.634 262.846 757.867 285.915 768.248 311.291 821.308 311.291 821.308 259.385 810.228 212.859" fill="#ccc"/><rect x="680.58491" y="258.23197" width="87.66345" height="53.05945" fill="#f2f2f2"/><rect x="737.6815" y="274.95723" width="18.45546" height="16.14853" fill="#3f3d56"/><rect x="714.03544" y="274.3805" width="16.14853" height="36.91092" fill="#ccc"/><polygon points="695.58 280.148 695.58 274.38 688.659 274.38 688.659 280.148 695.003 280.148 695.58 280.148" fill="#3f3d56"/><polygon points="695.003 284.762 688.659 284.762 688.659 290.529 695.58 290.529 695.58 284.762 695.003 284.762" fill="#3f3d56"/><rect x="700.19384" y="274.3805" width="6.9208" height="5.76733" fill="#3f3d56"/><rect x="700.19384" y="284.7617" width="6.9208" height="5.76733" fill="#3f3d56"/><polygon points="793.048 280.725 793.048 274.957 786.127 274.957 786.127 280.725 792.471 280.725 793.048 280.725" fill="#3f3d56"/><polygon points="792.471 285.338 786.127 285.338 786.127 291.106 793.048 291.106 793.048 285.338 792.471 285.338" fill="#3f3d56"/><rect x="797.66175" y="274.95723" width="6.9208" height="5.76733" fill="#3f3d56"/><rect x="797.66175" y="285.33843" width="6.9208" height="5.76733" fill="#3f3d56"/><polygon points="716.16 227.985 715.25 226.467 723.747 212.581 745.599 212.581 745.599 214.706 737.708 229.806 728.603 231.626 716.16 227.985" fill="#3f3d56"/><polygon points="745.599 212.581 738.315 226.467 737.101 227.681 735.583 233.751 738.315 240.428 752.275 240.428 752.275 226.771 745.599 212.581" fill="#ccc"/><rect x="715.24963" y="226.46716" width="23.06522" height="13.96053" fill="#f2f2f2"/><polygon points="725.021 232.483 725.021 229.729 721.717 229.729 721.717 232.483 724.746 232.483 725.021 232.483" fill="#3f3d56"/><polygon points="724.746 234.686 721.717 234.686 721.717 237.44 725.021 237.44 725.021 234.686 724.746 234.686" fill="#3f3d56"/><rect x="727.22438" y="229.72928" width="3.30446" height="2.75372" fill="#3f3d56"/><rect x="727.22438" y="234.68596" width="3.30446" height="2.75372" fill="#3f3d56"/><rect x="0.83641" y="310.71817" width="919.5818" height="1.67281" fill="#3f3d56"/><rect y="467.12594" width="919.5818" height="1.67281" fill="#3f3d56"/><rect x="857.47804" y="200.43263" width="2.79204" height="110.28555" fill="#3f3d56"/><path d="M1027.30751,402.12736q.00839,1.81982-.0336,3.62216c-1.00119,43.41413-53.05,43.654-54.45137.25095q-.05817-1.80165-.067-3.62169c-.22366-48.5283,26.871-87.994,26.871-87.994S1027.08385,353.59906,1027.30751,402.12736Z" transform="translate(-139.7909 -169.59834)" fill="#e6e6e6"/><rect x="278.05874" y="418.72342" width="29.42798" height="4.67111" fill="#3f3d56"/><path d="M660.04595,589.36794l-6.07169,1.40458-230.75272.12334-2.075-4.83449a48.79834,48.79834,0,0,1-3.58757-26.38619c.99382-6.67689,3.4842-13.31134,9.14054-16.19294l10.24-68.20367,127.66363-.22847,49.39258,39.83826s23.29921-.41884,35.957,15.33939c4.00584,4.99131,6.94752,11.604,7.73692,20.37124l.49954,8.19755Z" transform="translate(-139.7909 -169.59834)" fill="#ff6366"/><circle cx="469.57291" cy="418.62891" r="28.49376" fill="#3f3d56"/><circle cx="469.57291" cy="418.62891" r="14.99672" fill="#ccc"/><circle cx="328.97257" cy="418.70407" r="28.49376" fill="#3f3d56"/><circle cx="328.97257" cy="418.70407" r="14.99672" fill="#ccc"/><polygon points="454.581 340.633 385.653 340.663 377.239 340.663 363.032 340.673 363.032 339.637 363.022 327.145 363.012 313.118 372.463 313.118 380.877 313.108 395.782 313.098 404.196 313.098 421.403 313.088 454.581 340.633" fill="#fff"/><polygon points="351.817 340.683 315.389 340.703 315.379 333.555 315.379 321.064 315.369 313.148 320.703 313.148 329.117 313.138 351.807 313.128 351.817 340.683" fill="#fff"/><rect x="363.04331" y="361.22997" width="4.67111" height="8.87511" fill="#3f3d56"/><rect x="577.79763" y="516.07424" width="4.67111" height="8.87511" transform="translate(960.54391 -229.49787) rotate(89.96937)" fill="#3f3d56"/><path d="M439.16914,331.10583h.51383a9.76261,9.76261,0,0,1,9.76261,9.76261v0a9.76261,9.76261,0,0,1-9.76261,9.76261h-.51383a0,0,0,0,1,0,0V331.10583A0,0,0,0,1,439.16914,331.10583Z" fill="#3f3d56"/><path d="M658.18922,558.79654a15.08979,15.08979,0,0,1-8.23646-28.56879c4.00584,4.99131,6.94752,11.604,7.73692,20.37124Z" transform="translate(-139.7909 -169.59834)" fill="#3f3d56"/><polygon points="380.877 313.108 363.032 339.637 363.022 327.145 372.463 313.118 380.877 313.108" fill="#f2f2f2"/><polygon points="329.117 313.138 315.379 333.555 315.379 321.064 320.703 313.148 329.117 313.138" fill="#f2f2f2"/><polygon points="404.196 313.098 385.653 340.663 377.239 340.663 395.782 313.098 404.196 313.098" fill="#f2f2f2"/><rect x="821.62724" y="526.7846" width="17.87573" height="2.83742" transform="translate(1521.05686 887.25217) rotate(-179.96937)" fill="#3f3d56"/><path d="M692.38331,527.4201l3.68818.85319,140.16837.07493,1.26043-2.93667a29.6421,29.6421,0,0,0,2.17924-16.028c-.60369-4.05581-2.11645-8.08584-5.55234-9.83624L827.907,458.11769l-77.548-.13879-30.003,24.19934s-14.15287-.25441-21.84173,9.31776a22.46762,22.46762,0,0,0-4.69972,12.3743l-.30344,4.97952Z" transform="translate(-139.7909 -169.59834)" fill="#3f3d56"/><circle cx="583.37875" cy="357.12886" r="17.30824" fill="#3f3d56"/><circle cx="583.37875" cy="357.12886" r="9.1096" fill="#ccc"/><circle cx="668.78499" cy="357.17451" r="17.30824" fill="#3f3d56"/><circle cx="668.78499" cy="357.17451" r="9.1096" fill="#ccc"/><polygon points="592.486 309.751 634.355 309.77 639.466 309.77 648.096 309.776 648.096 309.146 648.102 301.558 648.108 293.037 642.367 293.037 637.256 293.031 628.203 293.025 623.091 293.025 612.639 293.019 592.486 309.751" fill="#fff"/><polygon points="654.908 309.782 677.036 309.794 677.042 305.452 677.042 297.864 677.048 293.056 673.808 293.056 668.697 293.05 654.915 293.044 654.908 309.782" fill="#fff"/><rect x="785.04254" y="491.8608" width="2.83742" height="5.39109" transform="translate(1432.86714 819.93466) rotate(-179.96937)" fill="#3f3d56"/><rect x="739.50679" y="482.89859" width="2.83742" height="5.39109" transform="translate(1087.12471 -424.67003) rotate(90.03063)" fill="#3f3d56"/><path d="M735.3958,473.5622h.31212a5.9302,5.9302,0,0,1,5.9302,5.9302v0a5.9302,5.9302,0,0,1-5.9302,5.9302h-.31212a0,0,0,0,1,0,0V473.5622a0,0,0,0,1,0,0Z" transform="translate(1336.98661 789.78116) rotate(-179.96937)" fill="#3f3d56"/><path d="M693.51116,508.84982a9.16614,9.16614,0,0,0,5.00316-17.35382,22.46762,22.46762,0,0,0-4.69972,12.3743Z" transform="translate(-139.7909 -169.59834)" fill="#3f3d56"/><polygon points="637.256 293.031 648.096 309.146 648.102 301.558 642.367 293.037 637.256 293.031" fill="#f2f2f2"/><polygon points="668.697 293.05 677.042 305.452 677.042 297.864 673.808 293.056 668.697 293.05" fill="#f2f2f2"/><polygon points="623.091 293.025 634.355 309.77 639.466 309.77 628.203 293.025 623.091 293.025" fill="#f2f2f2"/><path d="M299.93177,656.55689s0,31.7184,7.27963,40.038c0,0,1.55993,4.15979,2.0799,5.71971a21.8609,21.8609,0,0,0,1.04,2.59987v2.0799s14.03929-1.55992,15.59921-5.19974l-2.59987-3.11984s-.52-.52,0-2.0799a1.06816,1.06816,0,0,0-1.03995-1.55992l-3.63982-8.31957.52-34.31827-2.59987-47.3176-22.35887-1.04Z" transform="translate(-139.7909 -169.59834)" fill="#2f2e41"/><path d="M311.37119,703.8745s-3.63981,10.91944,0,11.43942,35.35821,1.03994,34.83824-3.11985S335.29,708.55426,335.29,708.55426l-10.91944-6.75966Z" transform="translate(-139.7909 -169.59834)" fill="#2f2e41"/><path d="M279.13283,605.0795a23.594,23.594,0,0,0,3.11984,14.03929c4.15979,7.27963,1.55992,31.71839,1.55992,31.71839l-36.91813,32.23837s7.27963,12.47937,9.8795,11.95939,43.67779-33.79828,43.67779-33.79828l16.11918-54.07726Z" transform="translate(-139.7909 -169.59834)" fill="#2f2e41"/><path d="M247.4018,681.69779s-11.17148,2.77139-9.6621,6.12406,18.05055,30.42141,21.28568,27.75529-2.77139-11.17148-2.77139-11.17148l-.13628-12.84168Z" transform="translate(-139.7909 -169.59834)" fill="#2f2e41"/><circle cx="159.6209" cy="338.76606" r="11.95939" fill="#ffb8b8"/><path d="M290.00194,512.58409l.529,15.38951,10.06294,3.976s.98685-15.75784,2.37988-16.63145S290.00194,512.58409,290.00194,512.58409Z" transform="translate(-139.7909 -169.59834)" fill="#ffb8b8"/><path d="M303.05161,533.84311s-14.03928-14.03929-17.6791-13.51932-3.63982,2.0799-3.63982,3.11985,1.04,1.55992,0,2.07989-2.07989,0-2.07989,1.55992-9.35953,17.15913-6.23968,34.31826,6.75965,25.47871,5.19973,34.83824-.52,11.43942-.52,11.43942,38.998,3.11984,39.518-.52-1.55992-1.55993,1.03994-4.15979,1.55993-2.59987,1.55993-4.15979S308.77133,533.84311,303.05161,533.84311Z" transform="translate(-139.7909 -169.59834)" fill="#575a89"/><path d="M295.772,604.55953s6.23969,15.07923,10.91945,11.43942-2.07989-16.11919-2.07989-16.11919Z" transform="translate(-139.7909 -169.59834)" fill="#ffb8b8"/><path d="M280.69275,534.88306s-12.2168,1.39865-7.66832,23.83815S295.252,607.1594,295.252,607.1594l11.95939-5.71972-15.59921-30.67844,3.63982-19.239S297.3319,533.32314,280.69275,534.88306Z" transform="translate(-139.7909 -169.59834)" fill="#575a89"/><polygon points="151.561 401.423 168.72 430.021 167.161 431.581 151.561 401.423" opacity="0.2"/><polygon points="142.479 414.75 156.241 437.301 151.561 437.301 142.479 414.75" opacity="0.2"/><path d="M293.99882,515.55075a17.2149,17.2149,0,0,1,3.1408-.93564,8.21673,8.21673,0,0,0,5.459-9.212,4.70047,4.70047,0,0,1-.19692-1.51826,2.89913,2.89913,0,0,1,2.417-2.12911,23.79183,23.79183,0,0,0,3.36567-.641,5.09755,5.09755,0,0,0,2.9742-4.08773,8.4438,8.4438,0,0,0-1.12795-5.08928l-.40259,1.15848a4.29716,4.29716,0,0,1-1.31542-1.96739,2.71,2.71,0,0,0-2.06485,1.66048c-.64621.38106-.7393-1.18382-1.45309-1.41468a1.28216,1.28216,0,0,0-.89094.21975c-1.43831.67084-3.1094.09727-4.65228-.27457a17.51318,17.51318,0,0,0-8.12991-.00958,9.73137,9.73137,0,0,0-4.8047,2.47217,11.52862,11.52862,0,0,0-2.24763,3.8622,22.25,22.25,0,0,0-1.81351,10.80569,15.29519,15.29519,0,0,0,3.60453,8.10394c1.02915,1.18574,4.38682,5.32245,6.22789,4.61718C294.4015,520.28519,291.27314,516.9919,293.99882,515.55075Z" transform="translate(-139.7909 -169.59834)" fill="#2f2e41"/><rect x="287.66295" y="643.02977" width="38.39675" height="0.73988" transform="translate(-543.44242 531.2344) rotate(-69.12314)" opacity="0.2"/><circle cx="163.187" cy="366.36001" r="0.7397" fill="#d0cde1"/><line x1="163.187" y1="366.36001" x2="169.47445" y2="386.70175" fill="#d0cde1"/><path d="M309.26535,556.66994a.36967.36967,0,0,1-.35324-.26078l-6.28745-20.34155a.36975.36975,0,1,1,.70648-.21852l6.28744,20.34192a.37017.37017,0,0,1-.35323.47893Z" transform="translate(-139.7909 -169.59834)" fill="#d0cde1"/><circle cx="833.83449" cy="345.69341" r="12.48898" fill="#2f2e41"/><path d="M955.87314,590.94422l-1.89346,3.78693s-6.05909,9.846-1.89347,10.98211,5.491-7.38452,5.491-7.38452l.75739-4.54432Z" transform="translate(-139.7909 -169.59834)" fill="#a0616a"/><polygon points="823.656 402.033 818.922 414.529 814.189 423.239 820.059 427.026 824.792 418.695 830.473 405.63 823.656 402.033" fill="#d0cde1"/><path d="M976.89062,630.139l9.46733,10.03537,16.66251,28.21265,7.19517-2.27216L1001.695,649.263s-4.923-12.87557-7.38452-14.57969-6.62713-12.87557-6.62713-12.87557l-4.54432-3.59758Z" transform="translate(-139.7909 -169.59834)" fill="#a0616a"/><path d="M957.38792,635.63l-.75739,3.21889s-2.46151,10.03537-6.24844,14.57969l-9.08864,15.71577-6.81647-2.27216L947.92059,635.062Z" transform="translate(-139.7909 -169.59834)" fill="#a0616a"/><circle cx="831.70334" cy="350.05688" r="10.22472" fill="#a0616a"/><path d="M979.54147,524.6729l1.32543,10.9821-8.5206,4.16563s0-9.46733-2.27216-11.92884Z" transform="translate(-139.7909 -169.59834)" fill="#a0616a"/><path d="M1006.23935,595.48854l.94673,3.21889s6.24844,12.30753.94673,12.30753-6.24843-11.36079-6.24843-11.36079l-.568-2.8402Z" transform="translate(-139.7909 -169.59834)" fill="#a0616a"/><path d="M962.68962,582.613l1.32543,9.278L947.92059,625.784l-.94674,9.846L977.08,639.417l6.62713-18.36663,10.60341,13.633-6.05909-14.01165s-1.89347-9.46733-1.32543-11.92884-.37869-14.769-2.08281-17.79858S962.68962,582.613,962.68962,582.613Z" transform="translate(-139.7909 -169.59834)" fill="#2f2e41"/><path d="M1001.88438,668.387l9.08863-3.02954,2.8402,4.54432s5.49106,1.51477,5.30171,5.491a67.66041,67.66041,0,0,0,.94673,10.79276l-3.97628.37869-1.51477-7.76321-7.76321,9.278s-13.82231.75739-14.39035-1.51477,9.846-4.73367,9.846-4.73367l1.70412-8.1419Z" transform="translate(-139.7909 -169.59834)" fill="#2f2e41"/><path d="M933.90894,665.73614l8.33125,2.65085v1.89347s2.4615,3.78693,2.08281,7.00582-2.08281,10.98211-2.08281,10.98211h-4.355l.18935-7.19517-8.70994,7.19517s-15.52643-1.13608-15.52643-3.59759,11.92884-4.16562,11.92884-4.16562Z" transform="translate(-139.7909 -169.59834)" fill="#2f2e41"/><path d="M971.77826,537.54847s7.76321-7.76321,11.3608-5.86974V535.087s5.3017,2.46151,5.491,6.24844,5.6804,38.248,5.6804,38.248l12.87557,44.87515s-3.97628,6.24844-18.556-.75738l-9.08864-30.8635s9.65668,34.83978,4.923,34.27174-23.28964-43.73907-23.28964-43.73907l1.32543-20.44944s-3.02955-8.89929,3.02954-14.95838Z" transform="translate(-139.7909 -169.59834)" fill="#d0cde1"/><path d="M985.03253,538.68455s3.21889,1.13608,5.49105,6.05909,13.633,39.57345,13.633,39.57345l3.02954,12.30753-8.5206,2.08281-4.16562-12.68622-15.52643-28.78069S976.51193,542.09279,985.03253,538.68455Z" transform="translate(-139.7909 -169.59834)" fill="#d0cde1"/><path d="M984.28428,511.49832a7.17687,7.17687,0,0,0-3.37992-5.836c1.03914-2.08718,1.96786-4.46948,1.28285-6.69813a5.11187,5.11187,0,0,0-3.85092-3.44583,10.03253,10.03253,0,0,0-2.99194.03873l-4.66568.5292a10.18954,10.18954,0,0,0-4.373,1.17756,5.06555,5.06555,0,0,0-.585,8.13c-3.26435,2.61106-5.44585,4.59313-6.93115,8.50049a14.035,14.035,0,0,1,8.81589-3.156,8.40318,8.40318,0,0,1,8.82886,7.69957,15.55038,15.55038,0,0,0,.287,3.2601,2.39827,2.39827,0,0,0,2.35662,1.875c-.15024.02122-1.07517-2.75616-.424-4.03815l.01021-.02064a1.22022,1.22022,0,0,1,.663-.56893,1.90959,1.90959,0,0,1,2.5383,1.328c.36219,1.391.94176,3.166,1.448,2.69488.663-.617.38406-6.0575.563-6.9009A15.8352,15.8352,0,0,0,984.28428,511.49832Z" transform="translate(-139.7909 -169.59834)" fill="#2f2e41"/><path d="M980.853,505.625s-10.26194.66926-15.16983-.22309" transform="translate(-139.7909 -169.59834)" fill="#d0cde1"/><path d="M980.271,504.25184c1.03919-2.08719,1.96789-4.46947,1.28285-6.69813a5.06,5.06,0,0,0-1.79005-2.51615,5.12367,5.12367,0,0,1,2.73679,3.08419c.685,2.22866-.24367,4.61094-1.28286,6.69813C980.39353,504.69683,982.34048,505.35491,980.271,504.25184Z" transform="translate(-139.7909 -169.59834)" fill="#2f2e41"/><polygon points="837.194 387.737 851.963 413.867 857.644 428.068 849.691 414.435 837.194 387.737" opacity="0.2"/><path d="M278.8192,705.84937s-4.6298,10.078-8.38894,12.90357c-3.80622-2.83325-8.52668-12.90357-8.52668-12.90357s-4.6298,10.078-8.38894,12.90357c-3.80622-2.83325-8.52667-12.90357-8.52667-12.90357s-13.149,13.44218-13.11259,19.80823a4.668,4.668,0,0,0,.02694.47507c.44881,4.168,14.04335,5.23,21.51145,3.26574a38.02,38.02,0,0,0,16.91562,0c7.4362,1.9957,21.30723.85234,21.71267-3.36346a4.67,4.67,0,0,0,.02158-.47525C292.02729,719.19366,278.8192,705.84937,278.8192,705.84937Z" transform="translate(-139.7909 -169.59834)" fill="#ff6366"/><path d="M555.05879,705.84937s-4.6298,10.078-8.38894,12.90357c-3.80622-2.83325-8.52667-12.90357-8.52667-12.90357s-4.6298,10.078-8.38894,12.90357c-3.80622-2.83325-8.52668-12.90357-8.52668-12.90357s-13.149,13.44218-13.11259,19.80823a4.668,4.668,0,0,0,.02695.47507c.4488,4.168,14.04334,5.23,21.51145,3.26574a38.01993,38.01993,0,0,0,16.91561,0c7.4362,1.9957,21.30723.85234,21.71267-3.36346a4.67,4.67,0,0,0,.02158-.47525C568.26689,719.19366,555.05879,705.84937,555.05879,705.84937Z" transform="translate(-139.7909 -169.59834)" fill="#e6e6e6"/><path d="M829.51045,705.84937s-4.6298,10.078-8.38894,12.90357c-3.80622-2.83325-8.52667-12.90357-8.52667-12.90357s-4.6298,10.078-8.38894,12.90357c-3.80622-2.83325-8.52667-12.90357-8.52667-12.90357s-13.149,13.44218-13.1126,19.80823a4.67083,4.67083,0,0,0,.02695.47507c.4488,4.168,14.04334,5.23,21.51145,3.26574a38.01993,38.01993,0,0,0,16.91561,0c7.4362,1.9957,21.30723.85234,21.71267-3.36346a4.67,4.67,0,0,0,.02158-.47525C842.71855,719.19366,829.51045,705.84937,829.51045,705.84937Z" transform="translate(-139.7909 -169.59834)" fill="#ff6366"/><path d="M295.40523,216.88917l-.12116.066a8.9602,8.9602,0,0,1-8.54354.03q-.11361-.06127-.22588-.121a9.0034,9.0034,0,0,0-8.5339.02947l-.11307.06156a8.96019,8.96019,0,0,1-8.54354.03q-.11794-.06361-.23445-.12556a8.952,8.952,0,0,0-8.45056-.015c-3.97389,2.14007-9.3461,5.79909-9.32244,9.93135a4.80553,4.80553,0,0,0,.02775.48914c.46209,4.29137,14.45908,5.38483,22.14827,3.36241a39.14534,39.14534,0,0,0,17.41639,0c7.65634,2.05479,21.938.87758,22.35546-3.463a4.81026,4.81026,0,0,0,.02221-.48932c-.0236-4.1345-5.44332-7.75514-9.44214-9.86511A8.94314,8.94314,0,0,0,295.40523,216.88917Z" transform="translate(-139.7909 -169.59834)" fill="#e6e6e6"/><path d="M555.52838,262.24457l-.12116.066a8.96025,8.96025,0,0,1-8.54354.03q-.11361-.06128-.22588-.121a9.00343,9.00343,0,0,0-8.5339.02946l-.11307.06157a8.96023,8.96023,0,0,1-8.54353.03q-.118-.06362-.23446-.12557a8.95206,8.95206,0,0,0-8.45056-.01495c-3.97388,2.14007-9.34609,5.79908-9.32244,9.93134a4.80553,4.80553,0,0,0,.02775.48914c.46209,4.29137,14.45908,5.38483,22.14827,3.36241a39.14534,39.14534,0,0,0,17.41639,0c7.65634,2.05479,21.938.87758,22.35546-3.463a4.81019,4.81019,0,0,0,.02221-.48931c-.0236-4.1345-5.44331-7.75515-9.44214-9.86512A8.94314,8.94314,0,0,0,555.52838,262.24457Z" transform="translate(-139.7909 -169.59834)" fill="#e6e6e6"/><path d="M735.31259,218.85669l-.12116.066a8.9602,8.9602,0,0,1-8.54353.03q-.11361-.06127-.22588-.121a9.00345,9.00345,0,0,0-8.53391.02946l-.11306.06157a8.96022,8.96022,0,0,1-8.54354.03q-.11794-.06361-.23445-.12556a8.95205,8.95205,0,0,0-8.45057-.015c-3.97388,2.14007-9.34609,5.79909-9.32243,9.93134a4.80841,4.80841,0,0,0,.02774.48914c.46209,4.29137,14.45909,5.38483,22.14828,3.36242a39.14548,39.14548,0,0,0,17.41639,0c7.65634,2.05478,21.938.87757,22.35545-3.463a4.80718,4.80718,0,0,0,.02222-.48931c-.0236-4.1345-5.44332-7.75515-9.44215-9.86511A8.94314,8.94314,0,0,0,735.31259,218.85669Z" transform="translate(-139.7909 -169.59834)" fill="#e6e6e6"/><rect y="559.13051" width="919.5818" height="1.67281" fill="#3f3d56"/></svg>