<?xml version="1.0" encoding="UTF-8" standalone="no"?>
<svg
   xmlns:dc="http://purl.org/dc/elements/1.1/"
   xmlns:cc="http://creativecommons.org/ns#"
   xmlns:rdf="http://www.w3.org/1999/02/22-rdf-syntax-ns#"
   xmlns:svg="http://www.w3.org/2000/svg"
   xmlns="http://www.w3.org/2000/svg"
   xmlns:sodipodi="http://sodipodi.sourceforge.net/DTD/sodipodi-0.dtd"
   xmlns:inkscape="http://www.inkscape.org/namespaces/inkscape"
   width="74.083473mm"
   height="35.183121mm"
   viewBox="0 0 74.083473 35.183121"
   version="1.1"
   id="svg912"
   inkscape:version="1.0.1 (3bc2e813f5, 2020-09-07)"
   sodipodi:docname="undraw_placeholder.svg">
  <defs
     id="defs906" />
  <sodipodi:namedview
     id="base"
     pagecolor="#ffffff"
     bordercolor="#666666"
     borderopacity="1.0"
     inkscape:pageopacity="0.0"
     inkscape:pageshadow="2"
     inkscape:zoom="1.1268487"
     inkscape:cx="-184.88126"
     inkscape:cy="138.30829"
     inkscape:document-units="mm"
     inkscape:current-layer="layer1"
     inkscape:document-rotation="0"
     showgrid="false"
     fit-margin-top="0"
     fit-margin-left="0"
     fit-margin-right="0"
     fit-margin-bottom="0"
     inkscape:window-width="2560"
     inkscape:window-height="1378"
     inkscape:window-x="0"
     inkscape:window-y="26"
     inkscape:window-maximized="0" />
  <metadata
     id="metadata909">
    <rdf:RDF>
      <cc:Work
         rdf:about="">
        <dc:format>image/svg+xml</dc:format>
        <dc:type
           rdf:resource="http://purl.org/dc/dcmitype/StillImage" />
        <dc:title></dc:title>
      </cc:Work>
    </rdf:RDF>
  </metadata>
  <g
     inkscape:label="Ebene 1"
     inkscape:groupmode="layer"
     id="layer1"
     transform="translate(-31.775214,-65.244768)">
    <path
       d="M 104.53577,100.42789 H 33.098131 A 1.3244724,1.3244724 0 0 1 31.775214,99.104974 V 66.567685 a 1.3244724,1.3244724 0 0 1 1.322917,-1.322917 h 71.437639 a 1.3244751,1.3244751 0 0 1 1.32292,1.322917 v 32.537289 a 1.3244751,1.3244751 0 0 1 -1.32292,1.322916 z M 33.098131,65.773935 a 0.79461783,0.79461783 0 0 0 -0.79375,0.79375 v 32.537289 a 0.79461783,0.79461783 0 0 0 0.79375,0.79375 h 71.437639 a 0.79461783,0.79461783 0 0 0 0.79375,-0.79375 V 66.567685 a 0.79461783,0.79461783 0 0 0 -0.79375,-0.79375 z"
       fill="#3f3d56"
       id="path16"
       style="stroke-width:0.264583" />
    <circle
       cx="42.358555"
       cy="75.427925"
       r="5.5562501"
       fill="#ff6366"
       id="circle18"
       style="stroke-width:0.264583" />
    <path
       d="m 55.190839,71.72376 a 0.926042,0.926042 0 0 0 0,1.852084 h 43.65625 a 0.926042,0.926042 0 0 0 0,-1.852084 z"
       fill="#e6e6e6"
       id="path20"
       style="stroke-width:0.264583" />
    <path
       d="m 55.190839,77.28001 a 0.926042,0.926042 0 0 0 0,1.852084 h 18.785417 a 0.926042,0.926042 0 0 0 0,-1.852084 z"
       fill="#e6e6e6"
       id="path22"
       style="stroke-width:0.264583" />
    <path
       d="m 38.096756,86.162843 c -0.704419,0 -1.277652,0.415478 -1.277652,0.926041 0,0.510564 0.573233,0.926042 1.277652,0.926042 H 98.32895 c 0.704422,0 1.277655,-0.415478 1.277655,-0.926042 0,-0.510563 -0.573233,-0.926041 -1.277655,-0.926041 z"
       fill="#e6e6e6"
       id="path24"
       style="stroke-width:0.264583" />
    <path
       d="m 38.096756,91.719093 c -0.704419,0 -1.277652,0.415478 -1.277652,0.926041 0,0.510564 0.573233,0.926042 1.277652,0.926042 H 98.32895 c 0.704422,0 1.277655,-0.415478 1.277655,-0.926042 0,-0.510563 -0.573233,-0.926041 -1.277655,-0.926041 z"
       fill="#e6e6e6"
       id="path26"
       style="stroke-width:0.264583" />
  </g>
</svg>
