<svg xmlns="http://www.w3.org/2000/svg" xmlns:xlink="http://www.w3.org/1999/xlink" width="75" height="25" viewBox="0 0 75 25">
  <defs>
    <clipPath id="clip-dbu">
      <rect width="75" height="25"/>
    </clipPath>
  </defs>
  <g id="dbu" clip-path="url(#clip-dbu)">
    <g id="Gruppe_35" data-name="Gruppe 35" transform="translate(15.185 0.795)">
      <g id="g3428" transform="translate(0 2.957)">
        <path id="path3430" d="M-31.962-28.491c0,1.109,0,2.491-.6,3.113a2.378,2.378,0,0,1-1.8.661h-1.951v-7.6h1.951a2.373,2.373,0,0,1,1.8.661c.6.623.6,1.776.6,2.892v.274Zm1.466-.137v-.2c0-1.325.005-2.826-1.034-3.866a3.644,3.644,0,0,0-2.648-.978h-3.6V-23.36h3.6a3.639,3.639,0,0,0,2.648-.978c1.04-1.039,1.036-2.73,1.034-4.088Z" transform="translate(37.775 33.673)" fill="#a0aec0"/>
      </g>
      <g id="g3432" transform="translate(9.358 2.958)">
        <path id="path3434" d="M-8.066-31.536h2.493a1.562,1.562,0,0,1,1.784,1.6,1.583,1.583,0,0,1-1.784,1.617H-8.066Zm2.381-1.355H-8.066v-3.026h2.381c1.572,0,1.742,1.053,1.742,1.505a1.529,1.529,0,0,1-1.742,1.52m2.026.631a2.5,2.5,0,0,0,1.183-2.165A2.807,2.807,0,0,0-5.6-37.272H-9.533V-26.96h4.057a2.834,2.834,0,0,0,3.154-2.945A2.6,2.6,0,0,0-3.658-32.26" transform="translate(9.533 37.272)" fill="#a0aec0"/>
      </g>
      <g id="g3436" transform="translate(18.509 2.957)">
        <path id="path3438" d="M-32.188,0V6.755a2.1,2.1,0,0,1-2.2,2.284,2.1,2.1,0,0,1-2.187-2.284V0h-1.467V6.839A3.488,3.488,0,0,0-34.388,10.4a3.5,3.5,0,0,0,3.667-3.556V0Z" transform="translate(38.043)" fill="#a0aec0"/>
      </g>
      <g id="g3440" transform="translate(29.073 -0.001)">
        <path id="path3442" d="M-31.8-69.952a5.15,5.15,0,0,1-2.915-4.633,5.17,5.17,0,0,1,5.187-5.154,5.2,5.2,0,0,1,1.572.242l1.09-2.751a8.13,8.13,0,0,0-2.6-.427,8.089,8.089,0,0,0-8.115,8.062A8.071,8.071,0,0,0-31.8-66.891Z" transform="translate(37.583 82.675)" fill="#cbd5e0"/>
      </g>
      <g id="g3444" transform="translate(0.01 15.381)">
        <path id="path3446" d="M-245.3-22.563a26.107,26.107,0,0,1-7.25,1.024,25.8,25.8,0,0,1-10.994-2.428,28.676,28.676,0,0,0-12.221-2.7,28.851,28.851,0,0,0-14.152,3.693v3.384l.367-.23a25.932,25.932,0,0,1,13.785-3.945,25.8,25.8,0,0,1,10.994,2.427,28.676,28.676,0,0,0,12.221,2.7,29.028,29.028,0,0,0,7.25-.918Z" transform="translate(289.921 26.667)" fill="#cbd5e0"/>
      </g>
      <g id="g3448" transform="translate(36.007 2.08)">
        <path id="path3450" d="M-24.363,0l-1.122,2.83A4.439,4.439,0,0,1-23.2,6.71a4.464,4.464,0,0,1-4.478,4.45,4.552,4.552,0,0,1-1.121-.141V17.2a11.387,11.387,0,0,0,1.181.061,11.451,11.451,0,0,0,1.739-.133V13.838a7.4,7.4,0,0,0,5.7-7.188A7.388,7.388,0,0,0-24.363,0" transform="translate(28.795 0)" fill="#a0aec0"/>
      </g>
    </g>
  </g>
</svg>
