<svg xmlns="http://www.w3.org/2000/svg" width="2500" height="627" viewBox="10.44 11.653 497.119 124.694"><g fill="#8c98a4"><path d="M201.398 105.244c-1.085 1.707-1.952 3.172-2.917 4.568-3.089 4.468-6.069 9.021-9.384 13.314-1.787 2.312-4.047 4.314-6.31 6.199-7.846 6.537-17.161 3.139-21.72-2.551-1.211-1.51-2.208-3.188-3.237-4.693-2.243 2.016-4.402 4.173-6.787 6.047-3.834 3.016-8.11 4.973-13.167 4.704-5.672-.3-9.975-2.91-13.028-7.631-3.004-4.646-4.191-9.884-4.773-15.278-.685-6.333-.485-12.67.182-18.999.115-1.088.178-2.19.15-3.284-.05-2.041-.875-3.146-2.876-3.517-2.757-.509-5.55-.83-8.254-1.224-1.502 3.897-2.827 7.724-4.433 11.426-4.134 9.527-9.343 18.447-15.757 26.63-1.345 1.716-2.902 3.307-4.555 4.731-5.704 4.928-12.354 5.502-18.76 1.504-2.279-1.422-4.25-3.338-6.156-4.863-2.334 2.631-4.58 5.621-7.281 8.118-7.132 6.596-15.367 7.532-23.985 3.456-10.014-4.735-15.615-12.953-17.372-23.814-1.253-7.743-.366-15.236 3.187-22.279 3.032-6.012 7.352-10.828 14.161-12.404 5.168-1.196 10.418-.936 15.524 1.138-.328-3.071-.732-6.086-.959-9.113-.964-12.918-.735-25.745 3.271-38.238.994-3.099 2.275-6.069 4.326-8.648 4.146-5.212 10.715-6.218 16.176-2.365 4.576 3.229 7.07 7.929 8.705 13.109 1.89 5.983 2.19 12.192 2.096 18.405-.323 21.197-4.323 41.658-12.442 61.281-.215.521-.191 1.344.082 1.818.874 1.521 1.802 3.042 2.925 4.381 1.269 1.514 2.151 1.529 3.892.598 6.233-3.338 10.819-8.223 14.37-14.344 4.27-7.359 8.149-14.853 10.732-22.979.283-.893.244-1.438-.562-2.157-4.812-4.297-7.265-9.684-6.516-16.167.688-5.951 5.969-8.873 11.495-6.486 5.146 2.223 7.818 6.506 9.119 11.748.749 3.019.673 3.047 3.818 3.506 3.96.579 7.957.969 11.877 1.746 6.412 1.271 9.299 4.732 9.288 11.269-.007 4.093-.54 8.182-.756 12.274-.267 5.056-.45 10.119.746 15.097a13.754 13.754 0 0 0 1.333 3.445c1.357 2.438 3.688 3.266 6.214 2.075 1.439-.678 2.864-1.61 3.955-2.754 2.267-2.376 4.33-4.948 6.408-7.495.308-.377.366-1.062.335-1.595-.606-10.479.131-20.881 1.782-31.225.762-4.77 2.278-5.578 6.745-3.771 4.672 1.89 6.565 4.634 6.42 9.692-.183 6.293-.581 12.582-.73 18.875-.101 4.287-.176 8.613 1.039 12.787.432 1.482 1.086 2.981 1.978 4.233 2.079 2.923 5.578 3.274 8.162.81 1.436-1.369 2.753-2.938 3.812-4.612 5.623-8.908 11.154-17.874 16.688-26.839.303-.489.476-1.15.47-1.73-.112-11.177.357-22.324 1.811-33.412 1.079-8.235 2.457-16.429 5.75-24.118 1.112-2.597 2.56-5.155 4.331-7.344 3.629-4.484 8.732-4.862 13.273-1.268 3.794 3.003 5.492 7.097 5.834 11.818.534 7.352-1 14.428-3.015 21.415-3.923 13.609-9.688 26.462-16.188 39.011a6.538 6.538 0 0 0-.691 3.101c.233 6.831.772 13.63 3.277 20.086.739 1.903 1.532 3.828 2.616 5.544 1.105 1.75 2.428 3.448 3.963 4.826 2.911 2.613 6.127 2.705 9.25.341a19.235 19.235 0 0 0 3.885-3.954c2.812-3.854 4.313-8.26 4.724-13.003.054-.614-.373-1.387-.801-1.903-1.21-1.465-2.688-2.726-3.79-4.261-3.65-5.086-6.386-10.606-7.375-16.87a11.754 11.754 0 0 1-.137-1.708c-.045-4.687 2.885-6.96 7.316-5.345 1.951.711 3.879 1.941 5.362 3.4 5.349 5.252 8.623 11.685 9.996 19.062.184.979.146 1.935 1.559 2.103 2.149.259 3.096.029 3.788-1.424.509-1.068.763-2.273 1.354-3.287 1.151-1.967 2.479-3.828 3.699-5.754 1.25-1.971 2.486-3.949 3.66-5.965.213-.365.123-.93.117-1.398-.14-11.13.366-22.229 1.812-33.271 1.041-7.95 2.369-15.867 5.476-23.312 1.18-2.824 2.71-5.615 4.613-7.996 3.585-4.486 8.778-4.828 13.271-1.241 3.78 3.021 5.479 7.111 5.814 11.831.526 7.351-1.009 14.427-3.023 21.413-3.943 13.654-9.705 26.562-16.283 39.122-.301.574-.662 1.234-.643 1.844.248 7.209.731 14.393 3.322 21.235 1.203 3.18 2.616 6.253 4.934 8.803a14.421 14.421 0 0 0 2.334 2.095c2.607 1.846 5.377 2.01 7.993.157 1.534-1.085 2.997-2.401 4.142-3.889 3.035-3.945 4.604-8.521 5.056-13.466.049-.534-.121-1.314-.49-1.627-4.396-3.713-7.103-8.573-9.246-13.756-1.013-2.441-1.529-5.091-2.238-7.656-.125-.449-.121-.943-.133-1.42-.123-5.103 3.096-7.333 7.897-5.475 2.659 1.029 4.732 2.861 6.509 5.01 4.361 5.28 7.372 11.217 8.371 18.058.122.832.481 1.138 1.196 1.301 2.721.624 3.782-.045 4.576-2.758.223-.761.66-1.472 1.084-2.151 2.212-3.562 4.474-7.099 6.655-10.68.349-.57.548-1.331.542-2.001-.095-10.364.299-20.704 1.53-30.999 1.052-8.768 2.373-17.507 5.771-25.724 1.202-2.91 2.817-5.771 4.793-8.212 3.449-4.267 8.638-4.57 12.963-1.163 3.844 3.027 5.599 7.138 5.944 11.914.534 7.352-1.008 14.428-3.019 21.415-3.92 13.611-9.687 26.461-16.188 39.008a6.524 6.524 0 0 0-.702 3.102c.252 6.877.846 13.711 3.316 20.229 1.174 3.09 2.572 6.062 4.781 8.566a14.91 14.91 0 0 0 2.189 2.044c2.709 2.041 5.576 2.216 8.354.271 1.499-1.051 2.914-2.354 4.025-3.806 3.026-3.95 4.614-8.516 5.062-13.462.05-.54-.099-1.33-.465-1.639-4.469-3.781-7.15-8.747-9.385-14.004-1.329-3.129-2.354-6.358-2.242-9.82.086-2.708 1.374-4.589 3.516-4.913 1.104-.167 2.3-.102 3.396.136 2.354.511 4.256 1.918 5.896 3.612 5.25 5.417 8.645 11.829 9.865 19.291.223 1.356.801 1.8 1.98 1.825 1.428.029 2.909.263 4.271-.039 1.272-.282 2.521-1.01 3.567-1.814.477-.367.75-1.463.601-2.108-4.891-21.181-3.754-42.236 1.225-63.21 1.192-5.024 2.987-9.848 5.742-14.26a25.382 25.382 0 0 1 1.83-2.557c5.021-6.151 12.217-6.75 18.221-1.51 4.03 3.519 6.188 8.168 7.704 13.152 2.317 7.611 2.839 15.448 2.723 23.348-.124 8.379-.885 16.658-3.834 24.604-2.896 7.804-7.613 14.48-12.761 20.901-.864 1.079-1.79 2.115-2.595 3.238-.247.346-.398 1.022-.229 1.362 1.81 3.565 3.642 7.125 5.587 10.616.616 1.107 1.524 2.074 2.409 3.003 1.403 1.477 3.131 2.191 5.229 2.237 5.671.123 10.693-1.493 15.098-5.11.938-.771 1.147-1.455.935-2.646-2.606-14.494 1.258-27.042 11.81-37.313 5.122-4.987 11.447-7.428 18.712-7.176 11.148.388 19.408 10.245 17.771 21.3-1.425 9.603-6.847 16.691-14.323 22.42-3.977 3.045-8.447 5.153-13.56 6.575.57.438.967.794 1.411 1.069 5.132 3.158 10.797 3.855 16.655 3.495 10.312-.638 17.954-6.026 24.226-13.784 1.049-1.297 1.989-2.68 3.006-4.004 1.188-1.549 2.214-1.699 3.543-.277 2.344 2.504 3.834 5.454 3.946 8.956.058 1.772-.517 3.373-1.608 4.784-10.391 13.417-24.078 19.468-40.968 18.277-7.587-.534-14.584-2.795-20.607-7.594-1.263-1.006-2.392-2.175-3.294-3.005-4.018 2.19-7.819 4.574-11.875 6.397-5.016 2.255-10.354 3.357-15.897 2.314-6.075-1.146-10.8-4.587-14.391-9.418-2.457-3.308-4.36-7.022-6.497-10.565-.27-.443-.444-.942-.706-1.513-4.598 1.356-9.215 1.305-13.717.395-.872 3.064-1.609 6.06-2.58 8.975-1.515 4.557-3.884 8.631-7.686 11.67-6.281 5.023-13.106 5.186-20.132 1.815-5.552-2.663-9.551-7.062-12.729-12.228-2.761-4.492-4.916-9.254-5.888-14.483-.033-.179-.138-.343-.336-.82-3.453 5.751-8.483 6.695-14.184 4.992-.896 3.146-1.661 6.13-2.604 9.058-1.154 3.574-2.951 6.824-5.509 9.604-5.461 5.938-12.826 7.651-20.355 4.751-5.098-1.965-9.038-5.423-12.329-9.688-4.021-5.214-6.119-9.925-8.637-19.406-3.138 6.344-8.187 7.502-14.047 5.697-1.116 3.645-2.019 7.141-3.279 10.504-.792 2.115-1.936 4.159-3.237 6.016-5.75 8.189-15.022 10.476-23.996 6.02-4.962-2.464-8.712-6.274-11.789-10.803-3.208-4.733-4.553-7.994-7.278-17.677zM34.944 123.693c4.382.104 8.274-1.127 10.953-4.637 2.267-2.973 4.064-6.305 6.012-9.513.19-.313.055-.899-.069-1.319a2657.225 2657.225 0 0 0-5.113-17.096c-.172-.566-.409-1.2-.816-1.6-4.633-4.545-12.725-5.223-17.604.021-1.631 1.752-3.139 3.775-4.133 5.938-3.43 7.461-2.894 15.023.146 22.479 1.107 2.715 3.218 4.496 6.103 5.152 1.474.337 3.012.394 4.521.575zm23.092-31.327c.183-.009.364-.019.545-.026 1.072-4.539 2.252-9.055 3.194-13.62 2.561-12.407 4.248-24.916 3.86-37.626-.121-3.963-.493-7.91-2.014-11.636-.866-2.124-1.902-2.291-3.451-.591-1.781 1.957-2.688 4.366-3.394 6.856-1.746 6.161-2.095 12.498-2.203 18.845-.158 9.223.529 18.404 1.711 27.543.446 3.436 1.16 6.838 1.752 10.255zm341.571-6.723c2.188-2.391 3.728-4.94 5.011-7.641 5.132-10.791 6.916-22.218 6.227-34.064-.229-3.947-.779-7.879-2.419-11.549-.524-1.176-1.104-2.589-2.556-2.61-1.458-.021-1.979 1.465-2.317 2.592-1.066 3.547-2.177 7.105-2.866 10.736-1.752 9.198-2.271 18.531-2.578 27.873-.164 4.868.365 9.665 1.498 14.663zm49.018 18.569l.552.183c.708-.271 1.425-.521 2.12-.819 6.432-2.774 11.83-6.784 14.922-13.247.854-1.782 1.322-3.903 1.365-5.882.073-3.375-2.736-5.349-6.024-4.565-2.498.596-4.484 2.04-6.189 3.896-3.282 3.572-5.21 7.839-6.021 12.566-.448 2.586-.497 5.242-.725 7.868zm-228.54-76.165c-4.164 3.379-9.395 30.516-8.335 35.37 3.929-6.006 9.313-28.695 8.335-35.37zm63.665.222c-3.708 3.072-9.424 30.182-8.377 35.52 4.775-11.627 7.677-23.305 8.377-35.52zm55.01 35.063c4.737-11.24 7.76-22.89 8.688-35.037l-.734-.175c-4.951 11.183-7.213 23.013-7.954 35.212z"/><path d="M152.124 51.287c.004-5.626 3.923-9.875 9.57-10.375 5.129-.454 10.107 3.622 11.029 9.034.478 2.806.179 5.52-1.085 8.083-1.818 3.688-5.527 5.572-9.593 4.926-5.867-.931-9.926-5.705-9.921-11.668z"/></g></svg>