<svg xmlns="http://www.w3.org/2000/svg" xmlns:xlink="http://www.w3.org/1999/xlink" width="102" height="35" viewBox="0 0 102 35">
  <g id="Zeichenfläche_2" data-name="Zeichenfläche – 2">
    <g id="layer1" transform="translate(-10.854 -410.257)">
      <g id="g3963" transform="translate(10.854 410.45)">
        <g id="Gruppe_6" data-name="Gruppe 6" transform="translate(0 16.945)">
          <path id="path3790" d="M954.717,1067.716c-1.57,0-2.209,1.387-2.209,3.157s.694,3.486,2.1,3.486c1.624,0,2.318-1.752,2.318-3.577C956.925,1069.194,956.177,1067.716,954.717,1067.716Zm2.208,7.885v-1.314a3.837,3.837,0,0,1-3.011,1.533c-2.391,0-3.979-1.971-3.979-4.891,0-2.373,1.715-4.672,4.161-4.672a3.332,3.332,0,0,1,2.793,1.277l.036-4.013,2.427-1.729V1075.6h-2.427" transform="translate(-949.935 -1057.958)" fill="#a0aec0" fill-rule="evenodd"/>
          <path id="path3792" d="M1036.113,1102.739h2.409v-9.126H1036.1v5.275c0,1.661-.986,2.373-1.825,2.373-1.15,0-1.716-.839-1.716-2.117v-5.53h-2.427v5.877c0,2.3,1.132,3.468,3.084,3.468a3.957,3.957,0,0,0,2.9-1.35v1.132" transform="translate(-1018.326 -1085.097)" fill="#a0aec0" fill-rule="evenodd"/>
          <path id="path3794" d="M1105.055,1069.6h-2.427v9.126h2.427ZM1102.627,1069.6Zm1.2-1.2a1.47,1.47,0,1,0-.037-2.939,1.429,1.429,0,0,0-1.406,1.406,1.488,1.488,0,0,0,1.442,1.533" transform="translate(-1079.954 -1061.086)" fill="#a0aec0" fill-rule="evenodd"/>
          <path id="path3796" d="M1139.669,1092.965a4,4,0,0,0-2.647-.839c-1.788,0-3.176,1.077-3.176,2.518,0,1.132.712,1.825,1.752,2.537.876.621,1.825,1.1,1.825,1.953a1.164,1.164,0,0,1-1.314,1.132,3.621,3.621,0,0,1-1.989-.876l-.767,1.259a5.066,5.066,0,0,0,3.048,1.04c2.008,0,3.413-1.35,3.413-2.628a3.434,3.434,0,0,0-1.679-2.756c-1.022-.748-1.9-1.168-1.9-1.9a.987.987,0,0,1,1.095-.931,2.747,2.747,0,0,1,1.552.584l.785-1.095" transform="translate(-1106.362 -1083.828)" fill="#a0aec0"/>
          <path id="path3798" d="M1196.344,1062.428c1.387,0,2.081,1.57,2.081,3.139,0,1.606-.547,3.5-2.172,3.5-1.314,0-2.245-1.3-2.245-3.212C1194.008,1063.76,1194.812,1062.428,1196.344,1062.428Zm-2.336-1.241h-2.427v13.689h2.427v-5.694a3.57,3.57,0,0,0,2.738,1.35c2.61,0,4.253-2.573,4.253-4.983,0-2.007-1.168-4.581-4.033-4.581a3.64,3.64,0,0,0-2.921,1.478h-.037v-1.259" transform="translate(-1156.02 -1057.255)" fill="#a0aec0" fill-rule="evenodd"/>
          <path id="path3800" d="M1270.23,1070.531a4.782,4.782,0,1,0-4.781-4.891A4.643,4.643,0,0,0,1270.23,1070.531Zm0-1.35c-1.734,0-2.208-1.935-2.208-3.541,0-1.515.547-3.322,2.208-3.322,1.7,0,2.227,1.807,2.227,3.322,0,1.606-.456,3.541-2.227,3.541" transform="translate(-1219.018 -1057.255)" fill="#a0aec0" fill-rule="evenodd"/>
          <path id="path3802" d="M1341.9,1061.186h-2.409v9.126h2.428V1065.8c0-1.971.821-2.646,1.66-2.646a2.21,2.21,0,0,1,1.15.311l.913-1.679a2.373,2.373,0,0,0-1.643-.821c-.748,0-1.277.73-1.569,1.113l-.493.712h-.036v-1.607" transform="translate(-1282.162 -1057.255)" fill="#a0aec0"/>
          <path id="path3804" d="M1387.181,1035.74l-2.427,1.741v2.19h-1.278v1.241h1.278v5.183c0,1.861.876,2.92,2.884,2.92a5.2,5.2,0,0,0,2.391-.584l-.42-1.2a2.338,2.338,0,0,1-1.168.31c-.8,0-1.259-.639-1.259-2.136v-4.49h2.391v-1.241h-2.391v-3.931" transform="translate(-1319.676 -1035.74)" fill="#a0aec0"/>
        </g>
        <path id="path3806" d="M1482.782,876.084l-.523.092.215-.154Zm0,2.775-4.529.247.74-.524Zm0,4.009-10.629.678,1.633-1.2,9,.524Zm0,16.25-11.615.679,10.2.709-10.2.617,8.688.432-.585.432-8.1.493,6.84.432-.77.555-6.07.431,5.084.308-.955.679-4.129.277,3.451.216-1.355.987-2.065.185,1.725.093-4.868,3.484V886.537l3.944-2.867,10.784.555-11.615.678,11.615.679-11.615.709,11.615.648-11.615.679,11.615.678-11.615.678,11.615.679-11.615.617,11.615.74-11.615.617,11.615.74-11.615.678,11.615.648-11.615.709,11.615.647-11.615.648,11.615.709-11.615.648,11.615.648-11.615.709,11.615.709Zm0-21.677-2.5.185.431-.308Zm0,2.775-6.531.339.986-.709Zm0,1.357-8.442.37,1.2-.863,7.24.493" transform="translate(-1389.523 -876.022)" fill="#a0aec0" fill-rule="evenodd"/>
        <path id="path3808" d="M1553.748,904.617l-3.944,2.868-10.784-.555,11.615-.8-11.615-.555,11.615-.709-11.615-.647,11.615-.74-11.615-.617,11.615-.771-11.615-.586,11.615-.709-11.615-.647,11.615-.74-11.615-.617,11.615-.679-11.615-.648,11.615-.709-11.615-.74,11.615-.555-11.615-.8,11.615-.555-11.615-.74,11.615-.617-11.615-.709,11.615-.679-10.2-.709,10.2-.617-8.535-.586.493-.37,8.041-.4-6.809-.463.771-.555,6.039-.37-5.053-.339,1.078-.8,3.974-.216-3.389-.216,1.294-.925,2.1-.185-1.756-.093,4.868-3.484v23.588Zm-4.129,2.991-1.633,1.2-8.966-.524Zm-2.156,1.6-1.2.863-7.241-.494Zm-1.911,1.387-.986.709-5.546-.37Zm-2,1.449-.739.524-3.79-.277Zm-2.033,1.48-.431.308-2.064-.123Zm-1.972,1.449-.524.093.308.062.215-.154" transform="translate(-1451.748 -880.412)" fill="#a0aec0" fill-rule="evenodd"/>
      </g>
    </g>
  </g>
</svg>
