<svg xmlns="http://www.w3.org/2000/svg" xmlns:xlink="http://www.w3.org/1999/xlink" width="75" height="25" viewBox="0 0 75 25">
  <defs>
    <clipPath id="clip-esri">
      <rect width="75" height="25"/>
    </clipPath>
  </defs>
  <g id="esri" clip-path="url(#clip-esri)">
    <g id="Esri-Logo.wine" transform="translate(3)">
      <path id="Pfad_16" data-name="Pfad 16" d="M100.663,0a2.148,2.148,0,0,0-2.179,2.124,2.209,2.209,0,0,0,4.416,0A2.144,2.144,0,0,0,100.663,0ZM69.3,6.368a6.884,6.884,0,0,0-7.221,6.973,7.248,7.248,0,0,0,12.212,5l-2.1-2.1a4.236,4.236,0,0,1-3.225,1.409A3.445,3.445,0,0,1,65.4,14.5H75.531v-.912c0-4.624-2.516-7.224-6.228-7.224Zm12.882,0c-2.685,0-5.342,1.327-5.342,4.29,0,5.065,7.167,2.905,7.167,5.645,0,1.051-1.245,1.521-2.213,1.521A4.054,4.054,0,0,1,78.648,16.2L76.5,18.343a6.522,6.522,0,0,0,5.1,1.973c2.71,0,5.73-1.108,5.73-4.263,0-5.176-7.169-3.238-7.169-5.618,0-1,1.052-1.413,1.939-1.413a3.014,3.014,0,0,1,2.591,1.345l2.112-2.11a5.824,5.824,0,0,0-4.621-1.891Zm13.983,0A4.233,4.233,0,0,0,92.235,8.8h-.053V6.7H88.861V19.983h3.32V12.87a3.339,3.339,0,0,1,3.57-3.348,6.371,6.371,0,0,1,1.466.215l.129-3.178a4.283,4.283,0,0,0-1.18-.191Zm2.864.331V19.983h3.32V6.7Zm-30.2,2.157a3.059,3.059,0,0,1,3.378,3.156H65.4a3.3,3.3,0,0,1,3.432-3.156Z" transform="translate(-34.656)" fill="#a0aec0"/>
      <path id="Pfad_17" data-name="Pfad 17" d="M4.891,17.672A10.287,10.287,0,1,0,15.178,7.386,10.288,10.288,0,0,0,4.891,17.672" transform="translate(-3.172 -4.56)" fill="#edf2f7"/>
      <path id="Pfad_18" data-name="Pfad 18" d="M122.171,136.739a21.59,21.59,0,0,0-2.311.251,10.262,10.262,0,0,0-3.627,7.522,36.842,36.842,0,0,0,2.331,2.919,3.462,3.462,0,0,1,.4-.144,7.767,7.767,0,0,1-1.183-1.546c-.467-1.574.074-3.048,1.242-3.164,1.048-.106,1.946-1.664,2.684-2.685,1.519-2.1,3.853-1.751,3.735-2.8a.889.889,0,0,0-.961-.8c-.7,0-1.615.424-2.307.451" transform="translate(-114.468 -131.676)" fill="#e2e8f0"/>
      <path id="Pfad_19" data-name="Pfad 19" d="M121.431,160.572c-.152.044-.3.083-.441.125s-.225.084-.4.144a1.106,1.106,0,0,0-.715.978,2.1,2.1,0,0,0,1.636,2.014c1.017.291,1.1-.049,1.635.671a7.493,7.493,0,0,1,.635,2.053,6.273,6.273,0,0,0,.423,1.02,10.171,10.171,0,0,0,2.3.756,34.622,34.622,0,0,1,.374-3.476c.544-1.415.85-2.04.118-3.5-1.617-.457-2.107-.6-3.736-.935a3.681,3.681,0,0,0-.725-.1,4.13,4.13,0,0,0-1.11.253" transform="translate(-116.497 -145.082)" fill="#e2e8f0"/>
      <path id="Pfad_20" data-name="Pfad 20" d="M142.1,140.027c-.476.681-2.149.867-2.685,1.634-.418.6.014,1.773-.35,2.451a2.136,2.136,0,0,0,.114,1.515c.644.937,1.714.416,2.519.754.982.41,1.094,1.549,1.909,2.383s-1.041,2.12.475,5.155a2.139,2.139,0,0,0,.553.728,10.318,10.318,0,0,0,2.67-2.4c.23-1.532-.288-2.023.36-3.425a21.565,21.565,0,0,1,1.82-3.378,10.265,10.265,0,0,0-3.375-7.171,1.655,1.655,0,0,1-.742,0,4.191,4.191,0,0,0-.75-.073c-1.523,0-1.976,1.048-2.519,1.824" transform="translate(-127.153 -132.745)" fill="#e2e8f0"/>
      <path id="Pfad_21" data-name="Pfad 21" d="M10.831,25.062c-.341-.2-.768-.5-1.167-.762a3.73,3.73,0,0,0-.431.533,8.219,8.219,0,0,0,1.6.229m-1.8-1.222a21.68,21.68,0,0,1-3.284-3.289c-.275.162-.582.6-.98.679a1.8,1.8,0,0,1-.613.029c-.1-.043.024-.263.136-.41a4.873,4.873,0,0,1,.895-.907,16.38,16.38,0,0,1-1.918-3.83,8.99,8.99,0,0,0-.909.656.483.483,0,0,1-.522.009.536.536,0,0,1,.1-.865c.144-.1.855-.594,1.022-.733a20.944,20.944,0,0,1-.9-3.779c-.292.253-.7.542-.817.62A.553.553,0,0,1,.913,12a14.917,14.917,0,0,0,.556,5.523,10.774,10.774,0,0,0,6.92,7.04,6.938,6.938,0,0,1,.642-.727M1.947,10.472c-.044-.66-.1-1.563-.1-1.563a8.131,8.131,0,0,0-.91,2.92,10.111,10.111,0,0,1,1.006-1.356M7.126,2.925a11.54,11.54,0,0,1,6.209-.978c.25.034.229.247-.036.249l-.318.008A14.667,14.667,0,0,0,7.116,3.592a22.039,22.039,0,0,0,.33,3.537A19.055,19.055,0,0,1,12.115,5.9,17.223,17.223,0,0,0,10,4.07a.555.555,0,0,1-.2-.478.419.419,0,0,1,.549-.4,8.881,8.881,0,0,1,2.261-.222c4.389-.192,8.4,2.291,9.93,5.122,3.877,6.132,0,14.592-5.076,16.845a12.068,12.068,0,0,1-7.466.9,11.26,11.26,0,0,1-8.434-5.695C-1.126,15.784.388,10.71.766,9.646a12.3,12.3,0,0,1,6.36-6.721M2.589,7.565a11.918,11.918,0,0,0,.118,2.32A18.585,18.585,0,0,1,6.951,7.3,30.93,30.93,0,0,1,6.61,3.827a13.633,13.633,0,0,0-4.046,3.88m.23,3.1a22.731,22.731,0,0,0,.963,3.869A28.634,28.634,0,0,1,8,12.143a31.19,31.19,0,0,1-.934-4.026,17.068,17.068,0,0,0-4.273,2.692m1.327,4.75a15.261,15.261,0,0,0,1.791,3.785,20.193,20.193,0,0,1,3.781-2.452c-.423-.909-1.033-2.608-1.459-3.881a23.135,23.135,0,0,0-4.114,2.547m2.314,4.476A24.541,24.541,0,0,0,9.616,23.35a15.672,15.672,0,0,1,2.761-1.806,36.59,36.59,0,0,1-2.26-3.786,13.791,13.791,0,0,0-3.682,2.278m3.74,3.808A18.808,18.808,0,0,0,11.888,25.1a14.8,14.8,0,0,0,2.881-.211c-.453-.517-1.583-2.117-1.926-2.655a12.01,12.01,0,0,0-2.669,1.611m5.553.81a14.1,14.1,0,0,0,1.881-.842,24.524,24.524,0,0,0,.009-2.668,12.061,12.061,0,0,0-3.972.779,20.046,20.046,0,0,0,2.081,2.731M18.26,23.46a9.432,9.432,0,0,0,2.431-2.043,10.441,10.441,0,0,0-2.363-.263s-.019,1.446-.068,2.307m2.723-2.415a3.5,3.5,0,0,0,.54-.763,25.775,25.775,0,0,0,.068-3.206,14.635,14.635,0,0,0-3.895-.858,23.867,23.867,0,0,1,.613,4.212,13.832,13.832,0,0,1,2.674.615m1.556-4.075a.507.507,0,0,1-.477.292,21.54,21.54,0,0,1-.126,2.328,15.446,15.446,0,0,0,.71-1.9l.165-.645a10.376,10.376,0,0,0,.214-4.936,8,8,0,0,0-1.886-4.2A16.421,16.421,0,0,0,18.9,6.993a14.427,14.427,0,0,1,2.373,4.4,9.2,9.2,0,0,1,1.287.763c.077.092.078.257-.162.253a6.278,6.278,0,0,1-.891-.274,17.891,17.891,0,0,1,.551,4.415s.529.256.48.422M20.5,6.993C18.8,4.92,14.974,3.157,10.709,3.422A13.347,13.347,0,0,1,13.15,5.78a16.659,16.659,0,0,1,4.142.311,3.472,3.472,0,0,1-.365-.437c-.119-.256.168-.311.4-.165a5.063,5.063,0,0,1,.9.681,13.215,13.215,0,0,1,2.275.821m1.084,9.346a15.255,15.255,0,0,0-.773-4.366,13.81,13.81,0,0,0-4.682-.871,29.271,29.271,0,0,1,1.327,4.247,16.407,16.407,0,0,1,4.128.99M17.89,6.777a19.879,19.879,0,0,0-4.2-.274,16.461,16.461,0,0,1,2.12,3.773,17.418,17.418,0,0,1,4.736.881A13.771,13.771,0,0,0,17.89,6.777M10.451,16.54a13.928,13.928,0,0,1,6.2-1.232,37.674,37.674,0,0,0-1.415-4.192,15.92,15.92,0,0,0-6.252,1.565,35.575,35.575,0,0,0,1.468,3.859m6.418-.381a13.5,13.5,0,0,0-5.98,1.26A37.286,37.286,0,0,0,13.165,21.2a12.525,12.525,0,0,1,2.29-.616,14.226,14.226,0,0,1,2.125-.188,21.382,21.382,0,0,0-.71-4.241M8.709,11.849A19.268,19.268,0,0,1,14.915,10.3,13.643,13.643,0,0,0,12.7,6.617,16.906,16.906,0,0,0,7.6,7.891a30.865,30.865,0,0,0,1.107,3.958" transform="translate(0 -1.033)" fill="#a0aec0"/>
    </g>
  </g>
</svg>
