<svg version="1.1" id="Evonik_Markenzeichen" xmlns="http://www.w3.org/2000/svg" x="0" y="0" viewBox="0 0 283.6 73" xml:space="preserve"><style>.st0{fill:#A0AEC0}</style><switch><g><path class="st0" d="M282.1 48.8H277c-.5 0-.9-.4-1-1-.2-3.1-1.3-6-3.2-8.5-.3-.4-.6-.8-1-1.2-2-2.3-4.9-3.5-7.9-3.5h-3.3v13.1c0 .6-.4 1-1 1h-5.3c-.6 0-1-.4-1-1V16.9c0-.6.4-1 1-1h5.3c.6 0 1 .4 1 1v10.4h3.3c5.8 0 10.6-4.7 10.7-10.5 0-.5.4-.9.9-.9h5.5c.6 0 1 .4 1 1-.1 5.6-2.7 10.8-7.1 14.1 1.1.9 2.2 1.9 3.1 3 3.3 3.9 5.2 8.7 5.4 13.8 0 .5-.4 1-1 1h-.3zM224.2 23.6c-5.8-2.2-12.3-2.2-18.1 0v24.1c0 .6-.4 1-1 1h-5.4c-.6 0-1-.4-1-1V19.5c0-.3.2-.6.4-.8 9.9-5.6 22.1-5.6 32 0 .3.2.5.5.4.9v28.2c0 .6-.4 1-1 1h-5.4c-.6 0-1-.4-1-1l.1-24.2zM238.7 47.7V16.9c0-.6.4-1 1-1h5.4c.6 0 1 .4 1 1v30.8c0 .6-.4 1-1 1h-5.4c-.5 0-1-.4-1-1zM146.2 15.9h7.2c.6 0 1 .4 1 1 0 .1 0 .2-.1.4l-11.8 30.8c-.1.4-.6.7-1 .7h-9c-.4 0-.8-.2-.9-.6l-11.3-31v-.3c0-.5.4-.9.9-1h7.3c.4 0 .8.3.9.7l7.7 24.8 8.3-24.9c.1-.3.5-.6.8-.6zM116.3 48.8h-26c-.4 0-.7-.2-.9-.5-2.8-4.9-4.2-10.4-4.2-16s1.4-11.1 4.2-15.9c.2-.3.6-.5 1-.5h24.7c.5 0 .9.4.9.9v5.6c0 .5-.4.9-.9.9H94.3c-.7 1.7-1.1 3.5-1.4 5.4h20.7c.5 0 1 .4 1 .9V35c0 .6-.4 1-1 1H92.8c.3 1.8.7 3.6 1.4 5.3h22.1c.5 0 1 .4 1 .9v5.5c0 .6-.4 1-1 1.1zM184.1 23.6c-5.8-2.2-12.3-2.2-18.1 0v17.5c5.8 2.2 12.3 2.2 18.1 0V23.6zm-9 26.6c-5.6 0-11.1-1.4-16-4.2-.3-.2-.5-.5-.5-.8V19.5c0-.3.2-.6.5-.8 9.9-5.6 22.1-5.6 32 0 .3.2.5.5.5.8v25.7c0 .3-.2.6-.5.8-5 2.7-10.5 4.2-16 4.2z"/><path id="KNull" class="st0" d="M32.3 7.4c-13.8 0-25 11.1-25 25 0 13.8 11.1 25 25 25 7.3 0 14.2-3.1 18.9-8.6H25c-.3 0-.6-.1-.8-.2-8.9-4.5-12.5-15.4-8-24.3 1.7-3.5 4.6-6.3 8-8 .2-.3.5-.3.8-.3h14.6c.3 0 .6.1.8.2 2.6 1.3 4.8 3.2 6.5 5.5.3.4.3 1.1-.2 1.4-.2.1-.4.2-.7.2H26.5c-5 3.2-6.4 9.9-3.1 14.9.8 1.2 1.9 2.3 3.1 3.1H62c.6 0 1 .4 1.1.9 0 .1 0 .3-.1.4-5.7 17-24 26.1-41 20.4C5.1 57.3-4 39 1.7 22.1s24.1-26 41-20.3c13.2 4.4 22 16.8 22 30.6 0 .9 0 1.8-.1 2.8 0 .5-.5.9-1 .9H28.9c-.4 0-.8-.2-.9-.6-.9-2-.9-4.2 0-6.1.2-.4.5-.6.9-.6H57C55.2 16.4 44.7 7.4 32.3 7.4z"/><path class="st0" d="M121.8 60.7h2.8v5.5c1.4-1.8 2.8-3.6 4.1-5.5h3.1c-1 1.4-2.7 3.7-4.2 5.6 1.4 2.2 2.9 4.4 4.5 6.4h-3.5c-1.4-2-2.8-4-4-6.1v6.1h-2.8v-12zM133.7 60.7h.3c1.4-.1 2.2-.1 3.1-.1 1.3-.1 2.5.1 3.7.7 1.1.7 1.8 1.9 1.7 3.2.1 1.4-.8 2.8-2.2 3.3.7 1.1 2.7 3.7 3.7 4.8l.1.2h-3.4c-.7-.9-2.3-3.2-3-4.3l-.1-.2h-1.2v4.5h-2.7V60.7zm2.7 5.3h.8c1.7 0 2.5-.5 2.5-1.6s-.7-1.7-2.4-1.7H136.4V66zM144.5 72.6c1.1-3.1 2.9-7.5 4.9-12h2.7c1.7 4 2.9 7.2 4.5 12h-3l-1-3.2h-4.2l-1.1 3.2h-2.8zm7.5-5.3l-.7-2.1c-.2-.7-.4-1.4-.5-2.1-.1.5-.1.6-.2.8l-.5 1.5-.7 1.9h2.6zM158.8 60.7h7.7v2.4h-5v2.5h4.8V68h-4.8v4.8h-2.8l.1-12.1zM171.7 63.1h-3.8v-2.3h10.4v2.4h-3.8v9.6h-2.8v-9.7zM186 60.7h7.7v2.4h-5v2.5h4.9V68h-4.8v4.8H186V60.7zM198.8 60.7v6.7c-.1.8 0 1.5.4 2.2.5.6 1.2.9 1.9.9s1.5-.3 1.9-.8c.3-.7.5-1.5.4-2.2v-6.7h2.8v7c.1 1.2-.2 2.4-.8 3.5-.8 1.1-2.3 1.7-4.3 1.7-1.5.1-3-.4-4.1-1.5-.7-.8-1-1.9-1-3.7v-7h2.8zm-1.2-3.8h2.6v2.6h-2.6v-2.6zm4.6 0h2.6v2.6h-2.6v-2.6zM209 60.7h.3c1.4-.1 2.2-.1 3.1-.1 1.3-.1 2.5.1 3.7.7 1.1.7 1.8 1.9 1.7 3.2.1 1.5-.8 2.8-2.2 3.3.7 1.1 2.7 3.7 3.7 4.8l.1.2H216c-.7-.9-2.3-3.2-3-4.3l-.1-.2h-1.2v4.5H209V60.7zm2.7 5.3h.8c1.7 0 2.5-.5 2.5-1.6s-.7-1.7-2.4-1.7H211.7V66zM226.9 60.7h2.3c.5 0 .9.2 1.1.6L234 67c.6 1 1.2 2 1.6 3-.3-1.1-.4-2.2-.4-3.3v-6h2.5v12h-2.3c-.5 0-.9-.2-1.1-.6l-3.7-5.7c-.6-1-1.1-2-1.6-3.1.2 1.1.4 2.2.4 3.3v6h-2.5V60.7zM241 60.7h7.7V63h-4.9v2.3h4.8v2.3h-4.8v2.6h5v2.4H241V60.7zM254.5 60.7v6.7c-.1.8 0 1.5.4 2.2.5.6 1.2.9 1.9.9s1.5-.3 1.9-.8c.3-.7.5-1.5.4-2.2v-6.7h2.8v7c.1 1.2-.2 2.4-.8 3.5-.8 1.1-2.3 1.7-4.3 1.7-1.5.1-3-.4-4.1-1.5-.7-.8-1-1.9-1-3.7v-7h2.8zM265.1 60.7h7.7V63h-4.9v2.3h4.8v2.3h-4.8v2.6h5v2.4h-7.7V60.7zM275.4 69.4c1 .8 2.1 1.2 3.4 1.2 1.3 0 1.9-.4 1.9-1.2 0-.6-.4-.9-1.5-1.5l-1-.5c-2-1-2.7-1.9-2.7-3.4 0-2.2 1.7-3.6 4.5-3.6 1.1 0 2.3.2 3.3.8v2.6c-.9-.7-2-1.1-3.1-1.1-1.2 0-1.9.4-1.9 1.1 0 .5.3.8 1.1 1.2l1 .5c.9.3 1.6.8 2.3 1.4.6.6.9 1.5.9 2.4 0 2.3-1.8 3.6-4.6 3.6-1.2 0-2.4-.3-3.5-.8l-.1-2.7z"/></g></switch></svg>