<svg id="Optimiert" xmlns="http://www.w3.org/2000/svg" viewBox="0 0 283.46 50.55"><defs><style>.cls-1{fill:#A0AEC0;}.cls-2{fill:#F8F9FC;}.cls-3{fill:#A0AEC0;}</style></defs><title>GBLogo4cp14</title><polygon class="cls-1" points="5.56 0 0 50.55 35.44 50.55 41.01 0 5.56 0"/><polygon class="cls-2" points="6.2 36.86 6.2 20.22 32.83 20.22 32.83 26.88 12.86 26.88 12.86 36.86 6.2 36.86"/><polygon class="cls-2" points="26.17 30.2 32.83 30.2 32.83 46.85 6.2 46.85 6.2 40.19 26.17 40.19 26.17 30.2"/><rect class="cls-2" x="16.18" y="30.21" width="6.66" height="6.66"/><polygon class="cls-3" points="206.04 36.89 222.78 36.89 222.78 31.98 206.04 31.98 206.04 26.01 223.81 26.01 223.81 20.39 199.53 20.39 199.53 48.47 224.24 48.47 224.24 42.85 206.04 42.85 206.04 36.89"/><polygon class="cls-3" points="273.91 20.39 263.39 31.97 262.6 31.97 262.6 20.39 256.13 20.39 256.13 48.47 262.6 48.47 262.6 36.88 263.39 36.88 274.46 48.47 283.46 48.47 269 34.24 281.98 20.39 273.91 20.39"/><path class="cls-3" d="M143.51,43V26.15h10c4.8,0,5.81,4.52,5.81,8.46s-1.23,8.38-6,8.38Zm9.69-22.46H137V48.61H153.2c9.49,0,12.61-5.36,12.61-14S162.69,20.53,153.2,20.53Z" transform="translate(-0.14 -0.14)"/><path class="cls-3" d="M100.39,20.52c-2-.18-4-.32-6-.31s-4,.14-6,.31C82.78,21,79,23.63,79,30.89v7.34a10.94,10.94,0,0,0,1.45,5.68,10.37,10.37,0,0,0,6.18,4.48,19.1,19.1,0,0,0,4.26.45c1.18,0,2.33.05,3.49.05s2.31,0,3.49-.05a19.1,19.1,0,0,0,4.26-.45,10.37,10.37,0,0,0,6.18-4.48,10.93,10.93,0,0,0,1.45-5.68V30.89C109.79,23.63,106,21,100.39,20.52Zm2.73,17c0,4.12-.79,5.27-3.85,5.58-1.6.17-3.6.24-4.87.24s-3.26-.07-4.87-.24c-3.06-.31-3.85-1.46-3.85-5.58v-6.3c0-2.92.25-4.73,3.78-5.11a51.28,51.28,0,0,1,9.87,0c3.53.38,3.78,2.19,3.78,5.11Z" transform="translate(-0.14 -0.14)"/><path class="cls-3" d="M121.23,43a1.94,1.94,0,0,1-1.29-.31,2,2,0,0,1-.56-1.72V20.52h-6.5V40.74c0,2.42.09,5,2.16,6.67,1.5,1.17,3.21,1.19,5,1.19H134V43Z" transform="translate(-0.14 -0.14)"/><path class="cls-3" d="M192.41,35l-1-.2v-.43l1-.35c1.78-.64,3.25-1.55,3.25-6.29,0-5.1-3.93-7.18-10-7.18H168.91V48.61h18.8c3,0,8.81-.95,8.81-7.3C196.52,37.36,195.37,35.58,192.41,35Zm-17-8.84h11c2.35,0,2.82,1.57,2.82,3.06s-.64,2.9-2.82,2.9h-11ZM187,43H175.41V37H187c2.35,0,2.82,1.57,2.82,3.06S189.17,43,187,43Z" transform="translate(-0.14 -0.14)"/><path class="cls-3" d="M236.13,42.64h0c-2-.94-2.22-3-2.22-5.89V32.39c0-2.84.19-5,2.22-5.89h0s3.76-1.9,15.88.47l.76-5.43a62.29,62.29,0,0,0-9.95-1.3,31.8,31.8,0,0,0-7.07.4,15.49,15.49,0,0,0-2.87.8c-4.1,1.61-5.64,5.5-5.64,9.69V38c0,4.18,1.54,8.08,5.64,9.69a15.5,15.5,0,0,0,2.87.8,31.87,31.87,0,0,0,7.07.4,62.26,62.26,0,0,0,9.95-1.3L252,42.17C239.89,44.53,236.13,42.64,236.13,42.64Z" transform="translate(-0.14 -0.14)"/><path class="cls-3" d="M62.27,32.07V37H70v3.84a2.51,2.51,0,0,1-.45,1.49,2.55,2.55,0,0,1-1.8.78,38.07,38.07,0,0,1-4.81.17c-1.69,0-3.37-.07-5.06-.24-4.08-.41-4.72-2.3-4.72-6.53V32.68c0-3.27.32-5.48,3-6.29a26.08,26.08,0,0,1,6-.54h2A47.21,47.21,0,0,1,73.83,27L75,22a46.38,46.38,0,0,0-12.9-1.7h0a54.17,54.17,0,0,0-6.88.47,11.1,11.1,0,0,0-4.62,1.62c-2.49,1.73-3.92,4.82-3.92,9V37.8c0,4.73,1.47,8,4.36,9.56,2.28,1.31,4.9,1.48,7.52,1.51.44,0,2.28.05,4.06.05,1.63,0,3.2-.05,4.11-.05,2.26,0,5-.32,6.83-1.82s2.32-3.81,2.32-6.09V32.07Z" transform="translate(-0.14 -0.14)"/></svg>