<?xml version="1.0" encoding="utf-8"?>
<!-- Generator: Adobe Illustrator 22.0.1, SVG Export Plug-In . SVG Version: 6.00 Build 0)  -->
<svg xmlns="http://www.w3.org/2000/svg" xmlns:xlink="http://www.w3.org/1999/xlink" x="0px" y="0px"
	 viewBox="0 0 200.4 66.5" style="enable-background:new 0 0 200.4 66.5;" xml:space="preserve">
<style type="text/css">
	.lenovo-0{fill:#8C98A4;}
</style>
<g>
	<path id="n_1_" class="lenovo-0" d="M80.4,21.2c-3.5,0-7.4,1.6-9.8,4.8l0,0l0,0v-4.3h-8.2v30h8.2V34.6c0-3.1,2.4-6.3,6.8-6.3
		c3.4,0,6.9,2.4,6.9,6.3v17.1h8.2V33.1C92.6,26.2,87.7,21.2,80.4,21.2z"/>
	<polygon id="v" class="lenovo-0" points="151.2,21.7 143.8,42.1 136.3,21.7 126.9,21.7 139.3,51.7 148.3,51.7 160.6,21.7 	"/>
	<path id="e_1_" class="lenovo-0" d="M55.8,26.1c-2.8-3.2-6.9-4.9-11.9-4.9c-9.1,0-15.9,6.7-15.9,15.5c0,9.1,6.9,15.5,16.8,15.5
		c5.6,0,11.3-2.6,14-5.7l-5.2-4c-3.4,2.5-5.4,3.2-8.6,3.2c-2.8,0-5.1-0.9-6.6-2.4l21.1-8.7C59,31.2,57.7,28.3,55.8,26.1z M36.1,37.9
		c-0.4-3.1,0.4-5.5,1.7-7.2c1.4-1.9,3.6-3,6.3-3c3,0,5.2,1.7,6.4,4.2L36.1,37.9z"/>
	<polygon id="l_1_" class="lenovo-0" points="8.6,12.7 0.2,12.7 0.2,51.7 27.3,51.7 27.3,44.1 8.6,44.1 	"/>
	<path id="o_4_" class="lenovo-0" d="M175.6,21.2c-9.1,0-16.2,6.8-16.2,15.5c0,8.8,7.1,15.5,16.1,15.5c9.1,0,16.2-6.8,16.2-15.5
		C191.6,27.9,184.6,21.2,175.6,21.2z M175.6,45.1c-4.5,0-8.1-3.7-8.1-8.5c0-5,3.3-8.5,7.9-8.5c4.5,0,8.1,3.7,8.1,8.5
		C183.5,41.6,180.2,45.1,175.6,45.1z"/>
	<path id="o_3_" class="lenovo-0" d="M112.1,21.2c-9.1,0-16.2,6.8-16.2,15.5c0,8.8,7.1,15.5,16.1,15.5c9.1,0,16.2-6.8,16.2-15.5
		C128.2,27.9,121.1,21.2,112.1,21.2z M112.1,45.1c-4.5,0-8.1-3.7-8.1-8.5c0-5,3.3-8.5,7.9-8.5c4.5,0,8.1,3.7,8.1,8.5
		C120,41.6,116.7,45.1,112.1,45.1z"/>
	<polygon id="t" class="lenovo-0" points="191.4,48.1 192.8,48.1 192.8,51.7 193.6,51.7 193.6,48.1 194.9,48.1 194.9,47.4 191.4,47.4
		"/>
	<polygon id="m_1_" class="lenovo-0" points="199.3,47.4 198,49.4 196.7,47.4 195.8,47.4 195.8,51.7 196.6,51.7 196.6,48.6 198,50.7
		198.1,50.7 199.4,48.6 199.4,51.7 200.2,51.7 200.2,47.4 	"/>
</g>
</svg>
