<svg xmlns="http://www.w3.org/2000/svg" xmlns:xlink="http://www.w3.org/1999/xlink" width="75" height="25" viewBox="0 0 75 25">
  <defs>
    <clipPath id="clip-ministerium">
      <rect width="75" height="25"/>
    </clipPath>
  </defs>
  <g id="ministerium" clip-path="url(#clip-ministerium)">
    <g id="Bundesministerium_für_Wirtschaft_und_Energie_Logo" transform="translate(-19.431 -21.043)">
      <g id="Gruppe_124" data-name="Gruppe 124" transform="translate(45.228 21.287)">
        <path id="Pfad_87" data-name="Pfad 87" d="M65.568,22.82a1.272,1.272,0,0,1-.061.418,1.014,1.014,0,0,1-.161.309.838.838,0,0,1-.239.209,1.212,1.212,0,0,1-.281.12v.013a.968.968,0,0,1,.333.126,1.03,1.03,0,0,1,.272.231,1.126,1.126,0,0,1,.187.329,1.217,1.217,0,0,1,.07.416,1.268,1.268,0,0,1-.094.5,1.035,1.035,0,0,1-.29.392,1.38,1.38,0,0,1-.494.259,2.427,2.427,0,0,1-.708.091h-.936V21.653h.882a2.555,2.555,0,0,1,.692.083,1.312,1.312,0,0,1,.475.237.881.881,0,0,1,.27.368,1.34,1.34,0,0,1,.083.479m-.584.022a.679.679,0,0,0-.226-.525,1.031,1.031,0,0,0-.71-.2h-.3V23.69h.3a.989.989,0,0,0,.7-.226.815.815,0,0,0,.24-.623m.085,2.108a.746.746,0,0,0-.242-.586,1.007,1.007,0,0,0-.692-.216h-.392v1.6H64.1a1.1,1.1,0,0,0,.738-.2.761.761,0,0,0,.229-.6m3.555,1.28h-.49v-.357h-.013a.679.679,0,0,1-.087.115.824.824,0,0,1-.17.146,1.1,1.1,0,0,1-.248.122.9.9,0,0,1-.324.054,1.092,1.092,0,0,1-.381-.063.688.688,0,0,1-.29-.2.989.989,0,0,1-.183-.361,2.068,2.068,0,0,1-.061-.546v-2.09h.536v2.049a.949.949,0,0,0,.131.568.47.47,0,0,0,.4.17.644.644,0,0,0,.392-.118,1.3,1.3,0,0,0,.25-.229V23.046h.538Zm2.56,0V24.18a.976.976,0,0,0-.135-.581.5.5,0,0,0-.416-.174.631.631,0,0,0-.4.12,1.408,1.408,0,0,0-.253.231v2.454h-.538V23.046h.49v.359h.013a.813.813,0,0,1,.087-.118.84.84,0,0,1,.172-.146,1.24,1.24,0,0,1,.253-.122.927.927,0,0,1,.331-.052,1.136,1.136,0,0,1,.385.061.721.721,0,0,1,.292.2.959.959,0,0,1,.185.361,1.887,1.887,0,0,1,.067.549v2.088Zm1.193-1.544a2.275,2.275,0,0,1,.126-.81,1.5,1.5,0,0,1,.327-.525,1.122,1.122,0,0,1,.451-.281,1.561,1.561,0,0,1,.5-.083,1.349,1.349,0,0,1,.266.022.854.854,0,0,1,.185.057V21.539l.538-.059v4.748h-.49v-.337H74.27A.808.808,0,0,1,74.2,26a.694.694,0,0,1-.146.139.881.881,0,0,1-.231.12.99.99,0,0,1-.327.05,1.056,1.056,0,0,1-.427-.089.937.937,0,0,1-.355-.285,1.455,1.455,0,0,1-.242-.505,2.645,2.645,0,0,1-.091-.745m1.261,1.147a.668.668,0,0,0,.226-.035.631.631,0,0,0,.172-.083.656.656,0,0,0,.122-.1.514.514,0,0,0,.076-.094V23.558a.7.7,0,0,0-.168-.081.777.777,0,0,0-.244-.033.914.914,0,0,0-.346.063.673.673,0,0,0-.283.209,1.109,1.109,0,0,0-.189.377,2.052,2.052,0,0,0-.07.57,2.329,2.329,0,0,0,.057.555.986.986,0,0,0,.157.357.59.59,0,0,0,.224.2.632.632,0,0,0,.266.061m4-1.713c0,.137,0,.257-.013.357s-.017.185-.026.261H75.975a1.423,1.423,0,0,0,.242.83.755.755,0,0,0,.621.266.819.819,0,0,0,.25-.035.918.918,0,0,0,.2-.078.857.857,0,0,0,.139-.094.881.881,0,0,0,.083-.072l.2.377c-.024.022-.057.054-.1.1a.9.9,0,0,1-.179.124,1.3,1.3,0,0,1-.279.111,1.49,1.49,0,0,1-.392.046,1.387,1.387,0,0,1-.54-.1,1.02,1.02,0,0,1-.411-.309,1.45,1.45,0,0,1-.261-.529,2.77,2.77,0,0,1-.094-.773,2.52,2.52,0,0,1,.1-.734,1.487,1.487,0,0,1,.263-.507,1.013,1.013,0,0,1,.383-.294,1.139,1.139,0,0,1,.472-.1.909.909,0,0,1,.714.287,1.251,1.251,0,0,1,.259.864m-1.008-.714a.538.538,0,0,0-.457.237,1.3,1.3,0,0,0-.2.69h1.16a.745.745,0,0,0,.009-.1c0-.041,0-.087,0-.135a.877.877,0,0,0-.133-.516.447.447,0,0,0-.385-.181m3.1.285a1.159,1.159,0,0,0-.194-.163.586.586,0,0,0-.364-.1.477.477,0,0,0-.324.1.307.307,0,0,0-.113.239.437.437,0,0,0,.1.3,1.557,1.557,0,0,0,.316.248l.2.12a1.952,1.952,0,0,1,.512.414.94.94,0,0,1-.076,1.21,1.034,1.034,0,0,1-.753.259,1.3,1.3,0,0,1-.337-.039,1.737,1.737,0,0,1-.257-.094.834.834,0,0,1-.181-.115,1.245,1.245,0,0,1-.12-.118l.259-.425c.026.028.059.059.1.094a.874.874,0,0,0,.135.1.746.746,0,0,0,.179.083.69.69,0,0,0,.233.035.553.553,0,0,0,.364-.107.325.325,0,0,0,.126-.259.581.581,0,0,0-.028-.2.449.449,0,0,0-.089-.148A.778.778,0,0,0,79.263,25c-.057-.041-.122-.085-.2-.133l-.2-.126a1.914,1.914,0,0,1-.468-.4.843.843,0,0,1-.17-.544.781.781,0,0,1,.07-.329.807.807,0,0,1,.2-.257.976.976,0,0,1,.3-.174,1.041,1.041,0,0,1,.361-.061,1.222,1.222,0,0,1,.318.035.926.926,0,0,1,.229.094.91.91,0,0,1,.159.113c.044.037.076.07.1.1Zm2.619,2.539V24.18a1.057,1.057,0,0,0-.113-.564.4.4,0,0,0-.364-.172.767.767,0,0,0-.235.033.787.787,0,0,0-.183.083.719.719,0,0,0-.139.109l-.1.107v2.454h-.538V23.046h.492v.359h.013a.81.81,0,0,1,.1-.131,1.012,1.012,0,0,1,.165-.146.953.953,0,0,1,.231-.115.926.926,0,0,1,.3-.046.8.8,0,0,1,.769.422,1,1,0,0,1,.126-.142,1.027,1.027,0,0,1,.185-.139,1.086,1.086,0,0,1,.239-.1,1.017,1.017,0,0,1,.292-.039c.644,0,.969.374.969,1.126v2.136H84.02V24.18a.911.911,0,0,0-.139-.564.5.5,0,0,0-.411-.172.625.625,0,0,0-.374.109,1.464,1.464,0,0,0-.235.209,1.556,1.556,0,0,1,.02.157c0,.054.007.113.007.174v2.136Zm3.549,0h-.538V23.046H85.9Zm-.266-3.952a.345.345,0,0,1-.266-.107.4.4,0,0,1-.1-.279.387.387,0,0,1,.1-.272.352.352,0,0,1,.266-.107.341.341,0,0,1,.259.107.379.379,0,0,1,.1.272.388.388,0,0,1-.1.279.334.334,0,0,1-.259.107m2.826,3.952V24.18a.959.959,0,0,0-.137-.581.493.493,0,0,0-.414-.174.642.642,0,0,0-.4.12,1.465,1.465,0,0,0-.25.231v2.454H86.72V23.046h.49v.359h.013a.672.672,0,0,1,.087-.118.84.84,0,0,1,.172-.146,1.24,1.24,0,0,1,.253-.122.919.919,0,0,1,.331-.052,1.136,1.136,0,0,1,.385.061.721.721,0,0,1,.292.2.992.992,0,0,1,.185.361,1.965,1.965,0,0,1,.067.549v2.088Zm1.877,0H89.8V23.046h.538Zm-.266-3.952a.345.345,0,0,1-.266-.107.4.4,0,0,1-.1-.279.387.387,0,0,1,.1-.272.352.352,0,0,1,.266-.107.341.341,0,0,1,.259.107.379.379,0,0,1,.1.272.388.388,0,0,1-.1.279.334.334,0,0,1-.259.107m2.46,1.413a1.122,1.122,0,0,0-.192-.163.59.59,0,0,0-.364-.1.488.488,0,0,0-.327.1.314.314,0,0,0-.113.239.428.428,0,0,0,.1.3,1.477,1.477,0,0,0,.314.248l.2.12a1.976,1.976,0,0,1,.509.414.865.865,0,0,1,.187.575.854.854,0,0,1-.263.636,1.025,1.025,0,0,1-.751.259,1.324,1.324,0,0,1-.34-.039,1.7,1.7,0,0,1-.255-.094.8.8,0,0,1-.183-.115,1.563,1.563,0,0,1-.12-.118l.259-.425c.026.028.059.059.1.094a.9.9,0,0,0,.137.1.709.709,0,0,0,.179.083.682.682,0,0,0,.233.035.553.553,0,0,0,.364-.107.325.325,0,0,0,.126-.259.529.529,0,0,0-.03-.2.415.415,0,0,0-.089-.148A.7.7,0,0,0,92.065,25c-.057-.041-.124-.085-.2-.133l-.2-.126a1.9,1.9,0,0,1-.466-.4.843.843,0,0,1-.17-.544.781.781,0,0,1,.07-.329.749.749,0,0,1,.2-.257.939.939,0,0,1,.294-.174,1.041,1.041,0,0,1,.361-.061,1.251,1.251,0,0,1,.32.035,1,1,0,0,1,.229.094,1.115,1.115,0,0,1,.159.113c.041.037.076.07.1.1Zm2.31-.207h-.7v1.764a.871.871,0,0,0,.085.462.331.331,0,0,0,.292.124.541.541,0,0,0,.207-.035.791.791,0,0,0,.126-.059l.072.431a.835.835,0,0,1-.5.139.791.791,0,0,1-.618-.229,1.13,1.13,0,0,1-.2-.76V23.484h-.385v-.357l.385-.081.059-.888h.479v.888H94.9Zm2.606.636c0,.137,0,.257-.013.357s-.017.185-.026.261H95.779a1.423,1.423,0,0,0,.242.83.755.755,0,0,0,.621.266.833.833,0,0,0,.253-.035.918.918,0,0,0,.2-.078,1.1,1.1,0,0,0,.139-.094c.037-.03.065-.054.083-.072l.2.377-.1.1a.924.924,0,0,1-.181.124,1.257,1.257,0,0,1-.279.111,1.473,1.473,0,0,1-.39.046,1.39,1.39,0,0,1-.542-.1,1.021,1.021,0,0,1-.412-.309,1.523,1.523,0,0,1-.261-.529,2.854,2.854,0,0,1-.094-.773,2.444,2.444,0,0,1,.1-.734,1.448,1.448,0,0,1,.261-.507A1.037,1.037,0,0,1,96,23.064a1.136,1.136,0,0,1,.47-.1.914.914,0,0,1,.716.287,1.262,1.262,0,0,1,.259.864m-1.008-.714a.539.539,0,0,0-.459.237,1.319,1.319,0,0,0-.2.69h1.16a.677.677,0,0,0,.011-.1c0-.041,0-.087,0-.135a.861.861,0,0,0-.133-.516.44.44,0,0,0-.383-.181m3.122.111a.335.335,0,0,0-.085-.033.653.653,0,0,0-.179-.02.56.56,0,0,0-.4.135.838.838,0,0,0-.2.3v2.334h-.536V23.046h.49v.431h.013a1.392,1.392,0,0,1,.087-.183.616.616,0,0,1,.133-.159.576.576,0,0,1,.189-.109.768.768,0,0,1,.261-.039.688.688,0,0,1,.183.02l.109.033Zm1.069,2.713h-.538V23.046h.538Zm-.266-3.952a.345.345,0,0,1-.266-.107.4.4,0,0,1-.1-.279.387.387,0,0,1,.1-.272.352.352,0,0,1,.266-.107.344.344,0,0,1,.259.107.388.388,0,0,1,.1.272.4.4,0,0,1-.1.279.337.337,0,0,1-.259.107m3.316,3.952h-.49v-.357h-.013a.575.575,0,0,1-.087.115.867.867,0,0,1-.168.146,1.166,1.166,0,0,1-.25.122.9.9,0,0,1-.324.054,1.1,1.1,0,0,1-.381-.063.668.668,0,0,1-.287-.2.927.927,0,0,1-.183-.361,1.975,1.975,0,0,1-.063-.546v-2.09h.536v2.049a.949.949,0,0,0,.131.568.47.47,0,0,0,.4.17.644.644,0,0,0,.392-.118,1.322,1.322,0,0,0,.253-.229V23.046h.536Zm2.5,0V24.181a1.057,1.057,0,0,0-.113-.564.4.4,0,0,0-.364-.172.792.792,0,0,0-.237.033.813.813,0,0,0-.181.083.719.719,0,0,0-.139.109c-.041.041-.074.076-.1.107v2.454H104.5V23.046h.492v.359h.013a.921.921,0,0,1,.1-.131,1.111,1.111,0,0,1,.165-.146.969.969,0,0,1,.233-.115.913.913,0,0,1,.3-.046.8.8,0,0,1,.771.422.883.883,0,0,1,.126-.142.955.955,0,0,1,.185-.139,1.068,1.068,0,0,1,.237-.1,1.043,1.043,0,0,1,.294-.039q.967,0,.967,1.126v2.136h-.536V24.18a.911.911,0,0,0-.139-.564.5.5,0,0,0-.411-.172.62.62,0,0,0-.374.109,1.593,1.593,0,0,0-.237.209,1.1,1.1,0,0,1,.022.157c0,.054.007.113.007.174v2.136ZM64.395,30.172h-.651v2.745h-.538V30.172H62.82v-.357l.385-.074v-.636a1.178,1.178,0,0,1,.074-.444.9.9,0,0,1,.192-.307.714.714,0,0,1,.279-.172,1.083,1.083,0,0,1,.337-.052.834.834,0,0,1,.294.046.766.766,0,0,1,.157.074l-.111.444a.677.677,0,0,0-.113-.057.477.477,0,0,0-.179-.03.354.354,0,0,0-.292.12.7.7,0,0,0-.1.438v.57h.716Zm2.759,2.745h-.49v-.357h-.015a.637.637,0,0,1-.085.115.885.885,0,0,1-.17.146,1.1,1.1,0,0,1-.248.122.914.914,0,0,1-.324.054,1.1,1.1,0,0,1-.383-.063.681.681,0,0,1-.287-.2.927.927,0,0,1-.183-.361,2.06,2.06,0,0,1-.063-.546v-2.09h.538v2.049a.968.968,0,0,0,.128.568.474.474,0,0,0,.4.17.633.633,0,0,0,.39-.118,1.259,1.259,0,0,0,.253-.229V29.735h.538Zm-1.319-4.1a.325.325,0,0,1-.094.244.306.306,0,0,1-.226.094.3.3,0,0,1-.224-.094.367.367,0,0,1,0-.49.309.309,0,0,1,.224-.094.314.314,0,0,1,.226.094.327.327,0,0,1,.094.246m1.021,0a.325.325,0,0,1-.094.244.318.318,0,0,1-.451,0,.367.367,0,0,1,0-.49.318.318,0,0,1,.451,0,.326.326,0,0,1,.094.246M69.376,30.2a.468.468,0,0,0-.087-.033.653.653,0,0,0-.179-.02.557.557,0,0,0-.4.135.8.8,0,0,0-.2.3v2.334h-.538V29.735h.49v.431h.013a1,1,0,0,1,.087-.183.615.615,0,0,1,.133-.159.576.576,0,0,1,.189-.109.768.768,0,0,1,.261-.039.711.711,0,0,1,.183.02l.109.033Zm6.366-1.864-1.115,4.576h-.516l-.7-2.878c-.05-.2-.091-.383-.126-.557a2.869,2.869,0,0,1-.061-.409h-.013a2.1,2.1,0,0,1-.052.4c-.035.168-.078.353-.126.551l-.71,2.891h-.518l-1.086-4.576h.616l.57,2.787c.046.211.083.411.118.6a3.63,3.63,0,0,1,.054.435H72.1a2.46,2.46,0,0,1,.07-.444c.041-.194.085-.4.135-.6l.677-2.774h.549l.664,2.787c.048.211.094.411.133.6a3.339,3.339,0,0,1,.067.435H74.4a3.736,3.736,0,0,1,.059-.449c.035-.2.076-.4.12-.612l.577-2.761Zm1.034,4.576h-.538V29.735h.538Zm-.266-3.952a.34.34,0,0,1-.263-.107.388.388,0,0,1-.1-.279.379.379,0,0,1,.1-.272.348.348,0,0,1,.263-.107.341.341,0,0,1,.259.107.379.379,0,0,1,.1.272.388.388,0,0,1-.1.279.334.334,0,0,1-.259.107M79,30.2a.411.411,0,0,0-.087-.033.653.653,0,0,0-.179-.02.551.551,0,0,0-.394.135.784.784,0,0,0-.2.3v2.334H77.6V29.735h.49v.431H78.1a1.394,1.394,0,0,1,.087-.183.662.662,0,0,1,.133-.159.576.576,0,0,1,.189-.109.768.768,0,0,1,.261-.039.688.688,0,0,1,.183.02l.109.033Zm1.89-.033h-.7v1.764a.846.846,0,0,0,.087.462.329.329,0,0,0,.292.124.53.53,0,0,0,.2-.035.641.641,0,0,0,.126-.059l.074.431a.981.981,0,0,1-.161.083.842.842,0,0,1-.337.057.786.786,0,0,1-.616-.229,1.129,1.129,0,0,1-.207-.76V30.172h-.383v-.357l.383-.081.061-.888h.477v.888h.762Zm1.983.207a1.217,1.217,0,0,0-.192-.163.6.6,0,0,0-.366-.1.478.478,0,0,0-.324.1.307.307,0,0,0-.113.239.437.437,0,0,0,.1.3A1.5,1.5,0,0,0,82.3,31l.2.12a1.952,1.952,0,0,1,.512.414.94.94,0,0,1-.076,1.21,1.03,1.03,0,0,1-.753.259,1.3,1.3,0,0,1-.337-.039,1.736,1.736,0,0,1-.257-.094.911.911,0,0,1-.183-.115,1.49,1.49,0,0,1-.118-.118l.257-.425c.028.028.059.059.1.094a.873.873,0,0,0,.135.1.789.789,0,0,0,.179.083.69.69,0,0,0,.233.035.563.563,0,0,0,.366-.107.33.33,0,0,0,.124-.259.582.582,0,0,0-.028-.2.45.45,0,0,0-.089-.148.834.834,0,0,0-.146-.126c-.059-.041-.124-.085-.2-.133l-.2-.126a1.914,1.914,0,0,1-.468-.4.843.843,0,0,1-.17-.544.781.781,0,0,1,.07-.329.807.807,0,0,1,.2-.257.976.976,0,0,1,.3-.174,1.041,1.041,0,0,1,.361-.061,1.233,1.233,0,0,1,.318.035.926.926,0,0,1,.229.094A.911.911,0,0,1,83,29.9l.1.1Zm2.719-.028-.063-.059a.831.831,0,0,0-.109-.081.993.993,0,0,0-.159-.07.713.713,0,0,0-.213-.028.8.8,0,0,0-.322.063.634.634,0,0,0-.257.2,1.043,1.043,0,0,0-.174.359,2.06,2.06,0,0,0-.063.542,2.642,2.642,0,0,0,.057.59,1.086,1.086,0,0,0,.157.381.557.557,0,0,0,.242.2.751.751,0,0,0,.316.065.685.685,0,0,0,.374-.087,1.465,1.465,0,0,0,.183-.139l.218.37a.967.967,0,0,1-.1.1.786.786,0,0,1-.163.109,1.063,1.063,0,0,1-.242.089,1.353,1.353,0,0,1-.329.037,1.384,1.384,0,0,1-.5-.087.979.979,0,0,1-.4-.285,1.447,1.447,0,0,1-.272-.516,2.728,2.728,0,0,1-.1-.79,2.239,2.239,0,0,1,.12-.775,1.427,1.427,0,0,1,.311-.514,1.185,1.185,0,0,1,.429-.285,1.3,1.3,0,0,1,.475-.089,1.333,1.333,0,0,1,.314.033.935.935,0,0,1,.233.083.718.718,0,0,1,.159.1c.044.039.076.07.1.1Zm2.528,2.567V30.869a.959.959,0,0,0-.137-.581.5.5,0,0,0-.414-.174.642.642,0,0,0-.4.12,1.488,1.488,0,0,0-.253.231v2.454H86.38v-4.69l.538-.059v1.89h.013a1.262,1.262,0,0,1,.083-.1.7.7,0,0,1,.157-.133.961.961,0,0,1,.242-.118,1.038,1.038,0,0,1,.335-.048.854.854,0,0,1,.664.27,1.343,1.343,0,0,1,.244.9v2.088Zm1.154-.808a.94.94,0,0,1,.1-.466.876.876,0,0,1,.285-.3,1.2,1.2,0,0,1,.422-.165,2.435,2.435,0,0,1,.514-.05h.165v-.3a.83.83,0,0,0-.142-.557.522.522,0,0,0-.4-.152.714.714,0,0,0-.4.1,2.1,2.1,0,0,0-.25.183l-.226-.359c.035-.035.081-.074.135-.12a1.246,1.246,0,0,1,.2-.124,1.333,1.333,0,0,1,.272-.1,1.4,1.4,0,0,1,.346-.039.964.964,0,0,1,.742.27,1.27,1.27,0,0,1,.253.875v1.454c0,.137,0,.27.013.4a2.468,2.468,0,0,0,.026.261h-.512l-.02-.351h-.013a.84.84,0,0,1-.078.135.669.669,0,0,1-.133.139.823.823,0,0,1-.194.111.7.7,0,0,1-.263.046.817.817,0,0,1-.335-.067.785.785,0,0,1-.272-.185.824.824,0,0,1-.179-.281.944.944,0,0,1-.063-.355m.96.431a.623.623,0,0,0,.2-.033.728.728,0,0,0,.148-.081.48.48,0,0,0,.107-.1c.028-.039.054-.07.076-.1v-.7l-.172.007a1.25,1.25,0,0,0-.584.131.416.416,0,0,0-.2.385.531.531,0,0,0,.111.368.4.4,0,0,0,.311.124m3.211-2.369h-.651v2.745h-.536V30.172h-.385v-.357l.385-.074v-.636a1.226,1.226,0,0,1,.072-.444.9.9,0,0,1,.192-.307.73.73,0,0,1,.279-.172,1.088,1.088,0,0,1,.34-.052.821.821,0,0,1,.292.046.8.8,0,0,1,.159.074l-.113.444a.6.6,0,0,0-.113-.057.477.477,0,0,0-.179-.03.354.354,0,0,0-.292.12.712.712,0,0,0-.1.438v.57h.716Zm1.89,0h-.7v1.764a.846.846,0,0,0,.087.462.329.329,0,0,0,.292.124.53.53,0,0,0,.2-.035.641.641,0,0,0,.126-.059l.074.431a.983.983,0,0,1-.161.083.842.842,0,0,1-.337.057.786.786,0,0,1-.616-.229,1.129,1.129,0,0,1-.207-.76V30.172h-.383v-.357l.383-.081.061-.888h.477v.888H95.4ZM65.283,39.606h-.492v-.357h-.013a.638.638,0,0,1-.085.115.884.884,0,0,1-.17.146,1.146,1.146,0,0,1-.248.122.918.918,0,0,1-.327.054,1.1,1.1,0,0,1-.381-.063.681.681,0,0,1-.287-.2.927.927,0,0,1-.183-.361,2.06,2.06,0,0,1-.063-.546v-2.09h.538v2.049a.968.968,0,0,0,.128.568.474.474,0,0,0,.4.17.633.633,0,0,0,.39-.118,1.259,1.259,0,0,0,.253-.229V36.423h.538Zm2.56,0V37.557a.959.959,0,0,0-.137-.581.493.493,0,0,0-.414-.174.642.642,0,0,0-.4.12,1.487,1.487,0,0,0-.253.231v2.454h-.536V36.423h.49v.359h.013a.574.574,0,0,1,.087-.118.784.784,0,0,1,.172-.146,1.186,1.186,0,0,1,.253-.122.919.919,0,0,1,.331-.052,1.136,1.136,0,0,1,.385.061.736.736,0,0,1,.292.2.992.992,0,0,1,.185.361,1.964,1.964,0,0,1,.067.549v2.088Zm1.193-1.544a2.227,2.227,0,0,1,.126-.81,1.466,1.466,0,0,1,.324-.525,1.122,1.122,0,0,1,.451-.281,1.583,1.583,0,0,1,.505-.083,1.364,1.364,0,0,1,.266.022.9.9,0,0,1,.185.057V34.916l.538-.059v4.748h-.492v-.337h-.013a.74.74,0,0,1-.218.248.9.9,0,0,1-.233.12.977.977,0,0,1-.324.05,1.066,1.066,0,0,1-.429-.089.937.937,0,0,1-.355-.285,1.5,1.5,0,0,1-.242-.505,2.734,2.734,0,0,1-.089-.745M70.3,39.21a.655.655,0,0,0,.224-.035.646.646,0,0,0,.174-.083.737.737,0,0,0,.122-.1.627.627,0,0,0,.076-.094V36.935a.682.682,0,0,0-.17-.081.753.753,0,0,0-.242-.033.925.925,0,0,0-.348.063.667.667,0,0,0-.281.209,1.036,1.036,0,0,0-.189.377,2.041,2.041,0,0,0-.07.57,2.329,2.329,0,0,0,.057.555,1.025,1.025,0,0,0,.155.357.6.6,0,0,0,.226.2.624.624,0,0,0,.266.061m5.685-3.721H74.348v1.578h1.5v.457h-1.5v1.6h1.8l-.033.477H73.772V35.03h2.249Zm2.558,4.117V37.557a.96.96,0,0,0-.135-.581.493.493,0,0,0-.414-.174.642.642,0,0,0-.4.12,1.487,1.487,0,0,0-.253.231v2.454H76.8V36.423h.49v.359h.013a.572.572,0,0,1,.087-.118.784.784,0,0,1,.172-.146,1.218,1.218,0,0,1,.25-.122.939.939,0,0,1,.333-.052,1.114,1.114,0,0,1,.383.061.728.728,0,0,1,.294.2.992.992,0,0,1,.185.361,1.973,1.973,0,0,1,.065.549v2.088Zm3.383-2.11c0,.137,0,.257-.013.357s-.017.185-.026.261H80.257a1.438,1.438,0,0,0,.244.83.753.753,0,0,0,.618.266.824.824,0,0,0,.253-.035.918.918,0,0,0,.2-.078A.858.858,0,0,0,81.707,39c.037-.03.065-.054.083-.072l.2.377-.1.1a.9.9,0,0,1-.179.124,1.3,1.3,0,0,1-.279.111,1.49,1.49,0,0,1-.392.046,1.387,1.387,0,0,1-.54-.1,1.021,1.021,0,0,1-.411-.309,1.451,1.451,0,0,1-.261-.529,2.771,2.771,0,0,1-.094-.773,2.52,2.52,0,0,1,.1-.734,1.524,1.524,0,0,1,.261-.507,1.037,1.037,0,0,1,.385-.294,1.136,1.136,0,0,1,.47-.1.914.914,0,0,1,.716.287,1.251,1.251,0,0,1,.259.864m-1.008-.714a.538.538,0,0,0-.457.237,1.318,1.318,0,0,0-.2.69H81.42a.744.744,0,0,0,.009-.1c0-.041,0-.087,0-.135a.877.877,0,0,0-.133-.516.447.447,0,0,0-.385-.181m3.124.111a.364.364,0,0,0-.087-.033.642.642,0,0,0-.179-.02.555.555,0,0,0-.394.135.784.784,0,0,0-.2.3v2.334h-.538V36.423h.492v.431h.013a1.144,1.144,0,0,1,.085-.183.716.716,0,0,1,.133-.159.624.624,0,0,1,.189-.109.786.786,0,0,1,.261-.039.688.688,0,0,1,.183.02l.109.033Zm2.759-.052h-.4a1.1,1.1,0,0,1,.152.57,1.21,1.21,0,0,1-.083.455.973.973,0,0,1-.233.342,1.041,1.041,0,0,1-.351.211,1.3,1.3,0,0,1-.435.072h-.087a.6.6,0,0,1-.085-.007.737.737,0,0,0-.168.107.245.245,0,0,0-.085.194.2.2,0,0,0,.076.161.377.377,0,0,0,.248.063h.4a1.694,1.694,0,0,1,.418.048.96.96,0,0,1,.335.148.714.714,0,0,1,.222.261.869.869,0,0,1,.078.385,1,1,0,0,1-.109.47,1.077,1.077,0,0,1-.309.366,1.5,1.5,0,0,1-.483.239,2.224,2.224,0,0,1-.636.085,1.182,1.182,0,0,1-.777-.222.79.79,0,0,1-.266-.64.712.712,0,0,1,.063-.309.983.983,0,0,1,.15-.224.749.749,0,0,1,.176-.152c.059-.039.107-.067.142-.089v-.013a.519.519,0,0,1-.2-.444.438.438,0,0,1,.05-.22.563.563,0,0,1,.111-.152.774.774,0,0,1,.126-.1.7.7,0,0,1,.1-.05v-.013a.909.909,0,0,1-.394-.355,1.159,1.159,0,0,1-.148-.621,1.205,1.205,0,0,1,.085-.468.964.964,0,0,1,.233-.335.954.954,0,0,1,.342-.2,1.317,1.317,0,0,1,.42-.065,1.149,1.149,0,0,1,.425.078h.969ZM85.32,39.508a1.188,1.188,0,0,1-.246-.022,1,1,0,0,0-.115.081.518.518,0,0,0-.1.113.6.6,0,0,0-.076.155.681.681,0,0,0-.03.209c0,.342.187.512.564.512a1.122,1.122,0,0,0,.716-.189.552.552,0,0,0,.233-.433.363.363,0,0,0-.148-.329.684.684,0,0,0-.39-.1Zm.71-2.1a.626.626,0,0,0-.163-.49.548.548,0,0,0-.381-.148.583.583,0,0,0-.4.148.808.808,0,0,0,0,.98.593.593,0,0,0,.779,0,.626.626,0,0,0,.163-.49m1.916,2.195H87.41V36.423h.536Zm-.263-3.952a.341.341,0,0,1-.266-.107.388.388,0,0,1-.1-.279.379.379,0,0,1,.1-.272.349.349,0,0,1,.266-.107.34.34,0,0,1,.257.107.379.379,0,0,1,.1.272.388.388,0,0,1-.1.279.332.332,0,0,1-.257.107M90.81,37.5c0,.137,0,.257-.013.357s-.017.185-.026.261H89.147a1.423,1.423,0,0,0,.242.83.755.755,0,0,0,.621.266.843.843,0,0,0,.253-.035.944.944,0,0,0,.194-.078A.856.856,0,0,0,90.595,39a.882.882,0,0,0,.083-.072l.2.377-.1.1a.842.842,0,0,1-.179.124,1.3,1.3,0,0,1-.279.111,1.49,1.49,0,0,1-.392.046,1.387,1.387,0,0,1-.54-.1,1.02,1.02,0,0,1-.411-.309,1.45,1.45,0,0,1-.261-.529,2.771,2.771,0,0,1-.094-.773,2.521,2.521,0,0,1,.1-.734,1.487,1.487,0,0,1,.263-.507,1.013,1.013,0,0,1,.383-.294,1.139,1.139,0,0,1,.472-.1.918.918,0,0,1,.716.287,1.262,1.262,0,0,1,.257.864M89.8,36.782a.538.538,0,0,0-.457.237,1.3,1.3,0,0,0-.2.69h1.16a.75.75,0,0,0,.009-.1,1.308,1.308,0,0,0,0-.135.861.861,0,0,0-.133-.516.444.444,0,0,0-.385-.181" transform="translate(-62.82 -21.481)" fill="#a0aec0"/>
      </g>
      <g id="Gruppe_125" data-name="Gruppe 125" transform="translate(23.075 21.043)">
        <path id="Pfad_88" data-name="Pfad 88" d="M53.615,62h.836v8.154H52.5V62Z" transform="translate(-36.099 -45.154)" fill="#cbd5e0"/>
        <path id="Pfad_89" data-name="Pfad 89" d="M53.615,41.9h.836v8.154H52.5V41.9Z" transform="translate(-36.099 -33.21)" fill="#bbc4d0"/>
        <path id="Pfad_90" data-name="Pfad 90" d="M34.4,25.473a1.574,1.574,0,0,0,1.692.888,4.81,4.81,0,0,1-1.1-1.256l-1.043-1.668a2.465,2.465,0,0,0-.766-1.354,1.347,1.347,0,0,0,.314-.155,16.614,16.614,0,0,1-1.727-.346.348.348,0,0,0-.392.331c.015.209.231.425.631.425a2.113,2.113,0,0,0,.333-.035,1.6,1.6,0,0,1,.39.965c0,.729-.873,1.3-1.753,1.3-.05,0-.1,0-.148-.007a1.969,1.969,0,0,1-.346-.83c0-.581.379-1.056.379-1.631a1.064,1.064,0,0,0-.242-.668,1.041,1.041,0,0,0,.255-.309.645.645,0,0,1-.246.03c-.422,0-.766-.111-1.1-.111-.189,0-.242.061-.242.118a.1.1,0,0,0,.009.05,1.191,1.191,0,0,0-.218-.061,1.862,1.862,0,0,0-.32-.028c-.407,0-.553.172-.553.318a1.238,1.238,0,0,0,.209.523,1.256,1.256,0,0,1,.438-.133c.216,0,.409.207.509.451a1.944,1.944,0,0,1-.32.024,2.435,2.435,0,0,1-.723-.144.014.014,0,0,0-.015.013c0,.054.111.2.333.283a4.291,4.291,0,0,0,.806.163.355.355,0,0,1-.159.179.1.1,0,0,1-.05,0,3.762,3.762,0,0,1-.779-.233c-.011-.007-.02,0-.02.015,0,.152.4.49.753.621a3.972,3.972,0,0,0-.843,1.359c-.05,0-.1.007-.148.007-.88,0-1.753-.57-1.753-1.3a1.6,1.6,0,0,1,.39-.965,2.112,2.112,0,0,0,.333.035c.4,0,.616-.216.631-.425a.348.348,0,0,0-.392-.331,16.734,16.734,0,0,1-1.727.346,1.347,1.347,0,0,0,.314.155,2.469,2.469,0,0,0-.769,1.354l-1.041,1.668a4.851,4.851,0,0,1-1.1,1.256,1.574,1.574,0,0,0,1.692-.888l.536-.856a2.4,2.4,0,0,0,.144.327l-1.062,1.7a4.79,4.79,0,0,1-1.1,1.254,1.573,1.573,0,0,0,1.689-.886l.917-1.465a2.848,2.848,0,0,0,.216.213l-1.291,2.066a4.732,4.732,0,0,1-1.1,1.254,1.575,1.575,0,0,0,1.694-.886l1.258-2.014q.124.078.255.15l-1.537,2.458a4.749,4.749,0,0,1-1.1,1.254,1.577,1.577,0,0,0,1.692-.886l1.581-2.532c.094.037.189.07.285.1l-1.787,2.861a4.832,4.832,0,0,1-1.1,1.254,1.577,1.577,0,0,0,1.692-.886l1.905-3.05c.02,0,.039.007.057.011a1.57,1.57,0,0,1,.089.472A3.429,3.429,0,0,1,27.3,29.845a.59.59,0,0,0,.211.028,1.9,1.9,0,0,0,.327-.02,7.792,7.792,0,0,1-.74,1.176,5.643,5.643,0,0,0-.843-.078c-.246,0-.272.144-.272.272a.647.647,0,0,0,.226.5c.046-.115.137-.268.592-.268.009,0,.024,0,.046,0-.133.148-.551.486-.551.756a.5.5,0,0,0,.457.449.552.552,0,0,1-.013-.15,1.157,1.157,0,0,1,.359-.655.575.575,0,0,0,0,.109c0,.52.048.758.377.758a.52.52,0,0,0,.314-.115.7.7,0,0,1-.226-.642c0-.076,0-.15,0-.253a1.444,1.444,0,0,0-.011-.218,1.41,1.41,0,0,1,.257-.017s.468-.035.579.207c.128-.115.311-.281.311-.462,0-.12-.057-.255-.3-.255-.091,0-.379.057-.618.057a6.041,6.041,0,0,1,.6-.871.706.706,0,0,0,.229.353,2.46,2.46,0,0,1,.44-1.18,5.881,5.881,0,0,1,.083,1.028c0,1.289-.309,2.24-.969,2.423a.569.569,0,0,0,.455.283c.242,0,.372-.272.505-.529.07.189.263.653.455.653s.385-.464.455-.653c.135.257.266.529.507.529A.569.569,0,0,0,31,32.778c-.66-.183-.969-1.134-.969-2.423a5.882,5.882,0,0,1,.083-1.028,2.46,2.46,0,0,1,.44,1.18.706.706,0,0,0,.229-.353,6.038,6.038,0,0,1,.6.871c-.239,0-.527-.057-.618-.057-.242,0-.3.135-.3.255,0,.181.185.346.311.462.113-.242.581-.207.581-.207a1.41,1.41,0,0,1,.257.017,1.446,1.446,0,0,0-.011.218c0,.1,0,.176,0,.253a.7.7,0,0,1-.226.642.52.52,0,0,0,.314.115c.329,0,.374-.237.374-.758a.873.873,0,0,0,0-.109,1.157,1.157,0,0,1,.359.655.552.552,0,0,1-.013.15.5.5,0,0,0,.455-.449c0-.27-.416-.607-.549-.756.022,0,.037,0,.046,0,.455,0,.546.152.592.268a.647.647,0,0,0,.226-.5c0-.128-.026-.272-.274-.272a5.615,5.615,0,0,0-.84.078,7.789,7.789,0,0,1-.74-1.176,1.9,1.9,0,0,0,.327.02.6.6,0,0,0,.211-.028,3.429,3.429,0,0,1-1.385-2.456,1.635,1.635,0,0,1,.087-.472l.059-.011,1.905,3.05a1.577,1.577,0,0,0,1.692.886,4.833,4.833,0,0,1-1.1-1.254l-1.79-2.861c.1-.033.194-.065.287-.1L33.2,29.157a1.575,1.575,0,0,0,1.692.886,4.75,4.75,0,0,1-1.1-1.254l-1.537-2.458q.131-.072.255-.15l1.258,2.014a1.575,1.575,0,0,0,1.692.886,4.757,4.757,0,0,1-1.1-1.254l-1.291-2.066a2.848,2.848,0,0,0,.216-.213l.914,1.465a1.575,1.575,0,0,0,1.692.886,4.791,4.791,0,0,1-1.1-1.254l-1.065-1.7a2.173,2.173,0,0,0,.146-.327Zm-8.533-1.957a1.872,1.872,0,0,1,.625-1.28l.118.028a1.66,1.66,0,0,0-.479,1.032,2.009,2.009,0,0,0,2.118,1.737c-.007.078-.011.163-.011.248a3.066,3.066,0,0,0,.022.385,2.375,2.375,0,0,1-2.393-2.151m1.724,7.62-.007.022h.022a4.222,4.222,0,0,0,.647-.041,1,1,0,0,1,.15-.015c.091,0,.161.009.161.122a.465.465,0,0,1-.174.268.8.8,0,0,0-.581-.148,2.93,2.93,0,0,0-.379.035l-.013,0-.015,0,0,.041a1.852,1.852,0,0,1,.024.29l0,.113v.139a.9.9,0,0,0,.148.607.337.337,0,0,1-.1.017c-.187,0-.242-.081-.242-.625,0-.109-.007-.211-.011-.279l0-.1-.024.017a1.48,1.48,0,0,0-.586.88.392.392,0,0,1-.176-.27c0-.155.235-.39.505-.66l.157-.155.02-.02-.052-.013a1.081,1.081,0,0,0-.257-.044.791.791,0,0,0-.612.185.645.645,0,0,1-.076-.285.153.153,0,0,1,.03-.113.143.143,0,0,1,.1-.026h.007a6.445,6.445,0,0,1,.893.085l.009,0,.007-.007a7.956,7.956,0,0,0,.83-1.337.326.326,0,0,1,.137-.026c.126,0,.161.085.2.213a4.278,4.278,0,0,0-.738,1.121m3.44-1.335a.33.33,0,0,1,.139.026A7.953,7.953,0,0,0,32,31.165l.007.007.009,0a6.442,6.442,0,0,1,.891-.085h.009a.143.143,0,0,1,.1.026.164.164,0,0,1,.03.113.645.645,0,0,1-.076.285.791.791,0,0,0-.612-.185,1.08,1.08,0,0,0-.257.044l-.024,0-.028.009.176.174c.27.27.505.505.505.66a.392.392,0,0,1-.176.27,1.49,1.49,0,0,0-.586-.88l-.024-.017,0,.1c0,.067-.011.17-.011.279,0,.544-.054.625-.242.625a.326.326,0,0,1-.1-.017.905.905,0,0,0,.148-.607v-.139l0-.113a2.227,2.227,0,0,1,.022-.29l.007-.041-.03,0a2.857,2.857,0,0,0-.377-.035.8.8,0,0,0-.581.148.465.465,0,0,1-.174-.268c0-.113.07-.122.161-.122a1,1,0,0,1,.15.015,4.222,4.222,0,0,0,.647.041h.022l-.007-.022a4.4,4.4,0,0,0-.738-1.121c.037-.128.072-.213.2-.213m-1.476-7.414a1.144,1.144,0,0,0-.233-.462.637.637,0,0,0-.477-.253,1.162,1.162,0,0,0-.374.091,1.035,1.035,0,0,1-.118-.327c0-.081.137-.163.4-.163.575,0,.919.261.919.7a1.035,1.035,0,0,1-.115.416m.259-.566a.763.763,0,0,0-.139-.331c0-.111.05-.22.231-.131-.1.1-.022.277-.022.277s.2-.091.159-.224c.3.072.083.47-.229.409m1.119,3.845a3.158,3.158,0,0,0,.024-.385c0-.072,0-.155-.009-.25A2,2,0,0,0,33.035,23.3a1.66,1.66,0,0,0-.479-1.032l.118-.028a1.872,1.872,0,0,1,.625,1.28,2.373,2.373,0,0,1-2.364,2.151" transform="translate(-23.075 -21.043)" fill="#a0aec0"/>
        <path id="Pfad_91" data-name="Pfad 91" d="M54.451,22v8.158H52.5V22Z" transform="translate(-36.099 -21.466)" fill="#a0aec0"/>
      </g>
    </g>
  </g>
</svg>
