<?xml version="1.0" encoding="utf-8"?>
<!-- Generator: Adobe Illustrator 24.1.2, SVG Export Plug-In . SVG Version: 6.00 Build 0)  -->
<svg version="1.1" id="Ebene_1" xmlns="http://www.w3.org/2000/svg" xmlns:xlink="http://www.w3.org/1999/xlink" x="0px" y="0px"
	 viewBox="0 0 297.64 96.9" style="enable-background:new 0 0 297.64 96.9;" xml:space="preserve">
<style type="text/css">
	.st0{fill:#A0AEC0;}
</style>
<g>
	<path class="st0" d="M96.45,21.62l7.62-7.62c-2.36-2.89-5.01-5.54-7.9-7.9l-7.62,7.62c-7.43-5.75-16.73-9.19-26.83-9.19
		c-10.1,0-19.4,3.44-26.82,9.2l-7.63-7.63c-2.89,2.36-5.54,5.01-7.9,7.9l15.6,15.6c3.41-4.78,7.11-7.32,7.72-7.76
		c5.37-3.85,11.93-6.13,19.03-6.13c7.02,0,13.52,2.22,18.85,6c3.06,2.16,5.74,4.84,7.9,7.9h0c3.77,5.33,5.99,11.84,5.99,18.85
		c0,7.02-2.22,13.52-6,18.85c-2.16,3.06-4.84,5.73-7.89,7.9c-5.34,3.77-11.84,6-18.85,6c-7.1,0-13.67-2.28-19.04-6.14
		c-0.61-0.44-4.42-3.1-7.71-7.75l-15.6,15.6c2.36,2.89,5.01,5.54,7.9,7.9l7.63-7.63c7.42,5.75,16.72,9.2,26.82,9.2
		c10.1,0,19.4-3.43,26.83-9.19l7.62,7.62c2.89-2.36,5.54-5.01,7.9-7.9l-7.62-7.62c5.75-7.43,9.19-16.73,9.19-26.83
		C105.63,38.35,102.2,29.04,96.45,21.62z"/>
	<path class="st0" d="M61.71,54.03c3.09,0,5.59-2.5,5.59-5.59c0-3.08-2.5-5.59-5.59-5.59c0,0,0,0,0,0H7.37
		c-0.19,1.84-0.28,3.7-0.28,5.59c0,1.89,0.1,3.75,0.28,5.58L61.71,54.03C61.71,54.03,61.71,54.03,61.71,54.03z"/>
	<path class="st0" d="M158.96,21.5c-15.58,0-26.9,11.75-26.9,26.1v0.14c0,14.35,11.18,25.96,26.75,25.96
		c15.57,0,26.89-11.75,26.89-26.1v-0.14C185.71,33.11,174.54,21.5,158.96,21.5z M174.1,47.75c0,8.65-6.2,15.72-15.14,15.72
		c-8.94,0-15.29-7.21-15.29-15.86v-0.14c0-8.65,6.2-15.72,15.14-15.72c8.94,0,15.29,7.21,15.29,15.86V47.75z"/>
	<path class="st0" d="M219.53,53.38h11.18v7.21c-2.81,2.02-6.42,3.03-10.46,3.03c-8.94,0-15.29-6.78-15.29-16.01v-0.14
		c0-8.58,6.42-15.72,14.49-15.72c5.84,0,9.3,1.87,13.2,5.12l6.99-8.44c-5.26-4.47-10.74-6.92-19.83-6.92
		c-15.29,0-26.46,11.75-26.46,26.1v0.14c0,14.93,10.82,25.96,26.53,25.96c9.23,0,16.37-3.6,21.56-8V43.79h-21.92V53.38z"/>
	<polygon class="st0" points="263.15,61.87 263.15,52.37 286.95,52.37 286.95,42.49 263.15,42.49 263.15,32.86 290.19,32.86
		290.19,22.98 252.12,22.98 252.12,71.75 290.55,71.75 290.55,61.87 	"/>
</g>
</svg>
