<svg viewBox="0 0 36 46" xmlns="http://www.w3.org/2000/svg"><title>500px-black</title><path d="M35.374 38.234c-.326-.324-.604-.515-.848-.584-.247-.071-.468-.018-.639.152l-.161.159c-1.682 1.672-3.64 2.984-5.82 3.901-2.256.949-4.654 1.43-7.126 1.43-2.472 0-4.87-.481-7.126-1.43-2.18-.917-4.138-2.229-5.82-3.901-1.752-1.742-3.072-3.688-3.924-5.785-.83-2.045-1.102-3.583-1.191-4.088l-.02-.112c-.114-.595-.665-.637-1.457-.516-.329.05-1.331.202-1.236.919l.002.016c.265 1.659.734 3.286 1.393 4.835 1.059 2.49 2.576 4.726 4.507 6.645 1.931 1.92 4.18 3.427 6.685 4.48 2.593 1.091 5.348 1.644 8.187 1.644 2.838 0 5.592-.553 8.187-1.645 2.504-1.053 4.753-2.56 6.685-4.481l.168-.171c.213-.23.398-.633-.446-1.469zm-14.62-33.306c-2.713 0-5.599.544-7.719 1.456-.227.088-.362.269-.392.523-.028.24.037.556.199.968.132.334.481 1.221 1.157.965 2.17-.823 4.569-1.276 6.755-1.276 2.477 0 4.879.482 7.14 1.433 1.796.756 3.491 1.847 5.334 3.434.134.116.277.175.424.175.359 0 .704-.351.999-.68.492-.549.83-1.005.345-1.461-1.76-1.657-3.688-2.895-6.069-3.896-2.589-1.089-5.339-1.641-8.173-1.641zm-3.699 22.804c.003.305.284.572.451.732l.053.051c.287.281.561.424.814.424.209 0 .338-.098.384-.14.127-.117 1.559-1.56 1.696-1.697l1.597 1.583c.148.166.309.249.496.254.255 0 .533-.151.826-.448.689-.7.344-1.077.178-1.259l-1.618-1.609 1.688-1.69c.37-.398.043-.821-.283-1.145-.473-.471-.93-.592-1.223-.324l-1.678 1.671-1.697-1.688c-.09-.086-.203-.131-.328-.131-.226 0-.494.152-.795.452-.522.519-.634.877-.362 1.164l1.698 1.682-1.688 1.681c-.139.138-.208.286-.207.44zm-10.762 2.492c.01.028.25.687.389 1.013.762 1.792 1.854 3.402 3.245 4.785 1.39 1.382 3.01 2.467 4.814 3.226 1.868.785 3.852 1.184 5.896 1.184s4.028-.398 5.896-1.184c1.804-.758 3.423-1.844 4.814-3.226s2.482-2.992 3.245-4.786c.79-1.857 1.191-3.829 1.191-5.861 0-2.032-.401-4.004-1.191-5.861-.763-1.793-1.855-3.403-3.245-4.786-1.39-1.382-3.01-2.468-4.814-3.226-1.868-.785-3.852-1.184-5.896-1.184-2.069 0-4.135.409-5.977 1.184-1.472.619-3.964 2.213-5.423 3.709l-.009.009v-12.392h20.939c.762-.008.762-1.066.762-1.414 0-.347 0-1.405-.764-1.414h-22.641c-.616 0-.998.51-.998.982v17.442c0 .563.705.969 1.36 1.108 1.279.272 1.575-.135 1.888-.565l.042-.057c.478-.706 1.973-2.202 1.988-2.217 2.333-2.319 5.452-3.596 8.783-3.596 3.315 0 6.425 1.277 8.758 3.596 2.341 2.327 3.63 5.411 3.63 8.682 0 3.284-1.282 6.367-3.611 8.682-2.299 2.286-5.511 3.596-8.812 3.596-2.236 0-4.394-.592-6.243-1.713l.008-10.606c0-1.414.617-2.951 1.651-4.112 1.182-1.327 2.811-2.058 4.588-2.058 1.72 0 3.327.649 4.524 1.828 1.188 1.17 1.843 2.73 1.843 4.391 0 3.544-2.803 6.32-6.382 6.32-.69 0-1.944-.303-1.996-.316-.723-.214-1.03.783-1.131 1.112-.389 1.264.196 1.515.317 1.552 1.152.355 1.907.423 2.897.423 5.052 0 9.162-4.088 9.162-9.113 0-4.984-4.108-9.04-9.157-9.04-2.473 0-4.795.94-6.54 2.646-1.662 1.625-2.615 3.791-2.615 5.943l-.001.053c-.008.268-.013 6.626-.015 8.713l-.009-.01c-.95-1.045-1.888-2.645-2.51-4.28-.244-.641-.795-.527-1.547-.297-.328.101-1.328.407-1.107 1.125l.003.009z"/></svg>
