<svg xmlns="http://www.w3.org/2000/svg" viewBox="0 0 44 48" enable-background="new 0 0 44 48"><title>Airbnb-black</title><desc>Created with Sketch.</desc><path d="M43.2 33.5l-.2-.6c-.2-.4-.3-.8-.5-1.1-.2-.4-.3-.8-.5-1.1l-.6-1.2-.1-.1c-3.3-7.2-6.7-14.1-10.1-20.7l-.1-.3c-.4-.7-.8-1.4-1.1-2.2l-.2-.2c-.4-.8-.9-1.6-1.6-2.4-1.5-1.9-3.8-3-6.2-3-2.4 0-4.6 1-6.2 2.9-.7.9-1.2 1.8-1.7 2.6l-1.1 2.2-.1.3c-3.9 7.5-7.3 14.3-10.2 20.7l-.1.1c-.2.4-.4.8-.5 1.2l-.5 1.1c-.2.5-.5 1.1-.7 1.7-.6 1.8-.8 3.5-.6 5.2.5 3.6 2.9 6.6 6.3 8 1.2.5 2.5.8 3.9.8l1.3-.1c1.6-.2 3.3-.7 4.8-1.6 1.8-1 3.5-2.4 5.5-4.5 1.9 2 3.7 3.4 5.5 4.5 1.5.9 3.1 1.4 4.8 1.6.3 0 .8.1 1.3.1 1.4 0 2.8-.3 3.9-.8 3.3-1.3 5.7-4.4 6.3-8 .1-1.5-.1-3.2-.7-5.1zm-25.5-8.7c.1-.6.3-1.2.6-1.7.8-1.2 2.1-1.8 3.6-1.8 1.6 0 2.9.7 3.6 1.8.4.5.6 1.1.7 1.7.1.8.1 1.7-.1 2.6-.5 2.2-1.9 4.9-4.2 7.9-2.2-2.9-3.7-5.6-4.2-7.9-.1-1-.1-1.8 0-2.6zm12.3 3.6c.3-1.4.4-2.7.2-4.1-.2-1.2-.6-2.4-1.3-3.3-1.5-2.2-4-3.5-6.9-3.5-2.8 0-5.3 1.3-6.9 3.5-.7 1-1.1 2.1-1.3 3.3-.2 1.3-.1 2.7.2 4.1.7 3 2.5 6.4 5.4 10.1-1.7 1.9-3.3 3.2-4.8 4.1-1.1.6-2.2 1-3.3 1.1-1.1.1-2.2 0-3.3-.4-2.1-.9-3.6-2.8-3.9-5-.1-1.3 0-2.3.5-3.5.1-.3.2-.6.4-.9l.2-.5c.3-.7.7-1.5 1-2.3v-.1c3.4-7.2 6.8-14.2 10.1-20.6l.1-.3c.2-.3.4-.7.6-1.1l.6-1.1c.4-.8.8-1.4 1.2-1.9.9-1 2-1.5 3.3-1.5s2.4.5 3.3 1.5c.4.5.8 1.1 1.2 1.9.2.3.4.7.5 1.1.2.4.4.7.5 1l.1.3c3.5 6.8 6.8 13.7 10 20.5l.1.2.5 1.1c.2.4.4.8.5 1.1l.2.5c.2.3.3.6.4.9.4 1.2.5 2.3.3 3.3-.3 2.2-1.8 4.1-3.9 5-1 .4-2.1.6-3.2.4-1.1-.1-2.2-.5-3.3-1.1-1.5-.8-3-2.1-4.8-4.1 3-3.3 4.8-6.7 5.5-9.7z"/></svg>