<svg width="48" height="48" viewBox="0 0 48 48" xmlns="http://www.w3.org/2000/svg"><title>Amazon-black</title><desc>Created with Sketch.</desc><g ><path d="M25.403 25.96c-.742 1.482-2.015 2.437-3.392 2.759-.209 0-.528.104-.847.104-2.328 0-3.706-1.801-3.706-4.45 0-3.394 2.012-4.981 4.552-5.726 1.377-.316 2.969-.424 4.558-.424v1.273c0 2.437.104 4.343-1.166 6.463zm1.166-12.607c-1.377.104-2.969.209-4.558.418-2.436.322-4.871.745-6.881 1.7-3.92 1.59-6.57 4.981-6.57 9.959 0 6.257 4.024 9.433 9.113 9.433 1.693 0 3.071-.215 4.338-.528 2.018-.638 3.708-1.804 5.721-3.925 1.166 1.59 1.487 2.335 3.497 4.029.531.209 1.061.209 1.482-.104 1.273-1.062 3.5-2.97 4.662-4.029.531-.424.426-1.062.104-1.587-1.163-1.485-2.331-2.759-2.331-5.619v-9.538c0-4.026.322-7.736-2.644-10.489-2.436-2.222-6.251-3.072-9.217-3.072h-1.273c-5.399.313-11.117 2.646-12.392 9.323-.212.85.426 1.166.849 1.271l5.932.743c.635-.107.954-.638 1.058-1.163.528-2.332 2.436-3.498 4.552-3.713h.426c1.273 0 2.65.531 3.389 1.592.847 1.271.742 2.968.742 4.453v.847z"/><path d="M47.994 35.946v-.003c-.023-.5-.127-.881-.336-1.197l-.023-.031-.025-.031c-.212-.232-.415-.319-.635-.415-.658-.254-1.614-.39-2.766-.392-.827 0-1.738.079-2.656.28l-.003-.062-.923.308-.017.008-.522.169v.023c-.612.254-1.168.57-1.685.946-.322.24-.587.559-.601 1.048-.008.265.127.57.35.751.223.181.483.243.711.243l.15-.011.045-.003.034-.006c.452-.096 1.109-.161 1.88-.268.66-.073 1.36-.127 1.967-.127.429-.003.816.028 1.081.085l.285.09.042.02.025.265c.006.508-.209 1.451-.505 2.372-.288.92-.638 1.844-.869 2.456-.056.141-.093.296-.093.466-.006.246.096.545.31.743.209.198.48.277.706.277h.011c.339-.003.627-.138.875-.333 2.342-2.106 3.158-5.472 3.192-7.367l-.006-.302zm-6.945 2.92c-.24-.003-.485.054-.714.161l-.768.325-.364.152-.474.189v.006c-5.151 2.089-10.561 3.315-15.567 3.422l-.548.006c-7.874.006-14.297-3.648-20.777-7.248-.226-.119-.46-.181-.686-.181-.291 0-.59.11-.807.313-.217.206-.347.503-.344.805-.003.392.209.754.505.988 6.082 5.283 12.748 10.19 21.714 10.196l.531-.008c5.704-.127 12.152-2.056 17.159-5.201l.031-.02c.655-.392 1.31-.839 1.928-1.333.384-.285.649-.731.649-1.194-.017-.822-.714-1.378-1.468-1.378z"/></g></svg>