<svg height="463pt" viewBox="-58 0 463 463.089" width="463pt" xmlns="http://www.w3.org/2000/svg"><g fill="#d4e1f4"><path d="m95.625 218.703125c-.339844.28125-.65625.597656-.9375.9375-.953125.976563-1.832031 2.023437-2.636719 3.128906 3.476563-3.300781 6.929688-6.722656 10.578125-10.417969l-.066406-.070312c-2.273438 2.167969-4.546875 4.28125-6.890625 6.382812-.015625.015626-.023437.027344-.046875.039063zm0 0"/><path d="m279.898438 441.085938c-1.183594 0-2.40625 0-3.484376-.070313-23.988281-1.535156-46.476562-11.015625-63.367187-19.09375-47.050781-22.828125-88.6875-55.4375-122.125-95.648437-28.167969-33.949219-47.085937-65.433594-59.546875-99.097657-7.464844-19.988281-10.257812-35.425781-9.0625-50.035156.53125-8.066406 4.050781-15.640625 9.871094-21.246094l-10 10c-5.820313 5.605469-9.339844 13.179688-9.871094 21.246094-1.199219 14.609375 1.601562 30.046875 9.0625 50.035156 12.460938 33.664063 31.378906 65.148438 59.546875 99.097657 33.4375 40.210937 75.074219 72.820312 122.125 95.648437 16.886719 8.078125 39.378906 17.558594 63.363281 19.09375 1.082032.070313 2.300782.070313 3.488282.070313 11.371093 0 19.75-3.507813 27.144531-11.367188 1.53125-1.800781 3.09375-3.539062 4.664062-5.234375-6.109375 4.523437-13.074219 6.601563-21.808593 6.601563zm0 0"/><path d="m312.699219 423.425781.511719-.492187-.023438-.023438c-.164062.167969-.328125.34375-.488281.515625zm0 0"/><path d="m260.648438 180c-35.453126.019531-67.898438-19.917969-83.894532-51.554688-16-31.640624-12.824218-69.589843 8.207032-98.128906-29.800782 21.90625-43.980469 59.257813-36.226563 95.421875 7.757813 36.164063 36.007813 64.414063 72.171875 72.171875 36.164062 7.757813 73.515625-6.425781 95.421875-36.226562-16.117187 11.914062-35.636719 18.335937-55.679687 18.316406zm0 0"/></g><path d="m71.703125 343.960938c34.539063 41.527343 77.546875 75.203124 126.144531 98.773437 17.886719 8.554687 41.757813 18.589844 67.785156 20.253906 1.460938.101563 2.953126.101563 4.269532.101563 14.613281 0 26.390625-5 36-15.273438.0625-.070312.128906-.140625.1875-.214844 4.996094-5.746093 10.289062-11.222656 15.855468-16.414062l1.902344-1.851562c2.949219-2.867188 5.738282-5.578126 8.523438-8.578126 10.789062-11.238281 10.707031-23.886718-.199219-34.6875l-46.417969-46.421874c-2.800781-3.035157-8.566406-7.980469-16.4375-7.980469-5.808594 0-11.667968 2.789062-16.945312 8.0625l-28.761719 28.761719c-1.109375 1.109374-4.046875 4.046874-8.542969 4.046874-1.9375-.03125-3.84375-.519531-5.554687-1.425781l-.101563-.058593c-.226562-.144532-.457031-.28125-.683594-.410157-2.632812-1.617187-5.554687-3.078125-8.640624-4.621093-3.363282-1.613282-6.640626-3.394532-9.820313-5.339844-26.429687-16.710938-50.382813-38.519532-73.230469-66.660156-.066406-.082032-.132812-.164063-.207031-.242188-12.371094-15.738281-20.421875-28.855469-26.070313-42.476562l-.15625-.46875c-1.5-4.761719-1.542968-8.597657 2.890626-13.039063.070312-.066406.132812-.136719.195312-.199219l.058594-.054687c7.191406-6.449219 13.707031-12.933594 21.269531-20.671875 1.652344-1.601563 3.28125-3.246094 4.855469-4.839844.789062-.800781 1.585937-1.601562 2.386718-2.40625 11.300782-11.300781 11.300782-23.253906 0-34.554688l-22.890624-22.894531c-1.347657-1.390625-2.6875-2.757812-4.027344-4.113281-1.339844-1.351562-2.660156-2.699219-3.960938-4.042969-5.578125-5.761719-10.3125-10.554687-15.273437-15.191406l-.183594-.183594c-5-5-10.714844-7.644531-16.519531-7.644531-5.753906 0-11.601563 2.628906-16.890625 7.601562-.046875.042969-.09375.085938-.136719.132813l-28.675781 28.671875c-7.828125 7.613281-12.578125 17.839844-13.34375 28.730469-1.351563 16.476562 1.664062 33.511719 9.769531 55.21875 12.941406 34.960937 32.503906 67.554687 61.578125 102.605469zm197.609375-.292969c3.484375 0 6.527344 2.921875 7.671875 4.179687.070313.078125.144531.152344.21875.226563l46.5 46.5c6.253906 6.199219 6.332031 11.164062.230469 17.640625-.25.222656-.476563.464844-.683594.722656-.496094.527344-1.011719 1.035156-1.511719 1.554688l-63.582031-63.582032 2.695312-2.699218c1.699219-1.691407 5.058594-4.542969 8.460938-4.542969zm-209.910156-210.667969c3.226562 0 6.148437 2.246094 8.035156 4.128906l.253906.253906c.046875.046876.097656.09375.144532.140626 4.804687 4.492187 9.441406 9.183593 14.921874 14.84375 1.328126 1.367187 2.667969 2.738281 4.03125 4.113281 1.3125 1.335937 2.636719 2.679687 4.027344 4.113281l22.960938 22.960938c6.570312 6.570312 6.570312 11.007812 0 17.582031-.820313.820312-1.628906 1.640625-2.4375 2.457031l-.25.25-63.429688-63.429688 3.132813-3.128906c3.003906-2.804687 5.980469-4.285156 8.609375-4.285156zm-47.089844 54.136719c.53125-8.0625 4.050781-15.640625 9.871094-21.246094l16.992187-16.992187 63.453125 63.453124c-5.855468 5.929688-11.207031 11.160157-16.957031 16.3125l-.039063.035157c-.34375.28125-.660156.597656-.941406.9375-10.085937 10.382812-6.664062 21.226562-5.5 24.898437l.253906.757813c.042969.132812.089844.265625.144532.398437 6.117187 14.820313 14.753906 28.925782 28 45.746094.101562.121094.199218.242188.308594.359375 23.628906 29.070313 48.480468 51.652344 75.957031 69.027344 3.519531 2.164062 7.148437 4.148437 10.875 5.9375 2.898437 1.449219 5.640625 2.816406 7.84375 4.1875.121093.074219.246093.144531.375.210937l.109375.070313c.335937.210937.675781.410156 1.003906.574219 3.398438 1.773437 7.171875 2.710937 11.003906 2.738281 6.28125 0 12.007813-2.542969 17.023438-7.558594l17.582031-17.582031 63.539063 63.535156c-5.675782 5.3125-11.070313 10.910156-16.164063 16.78125-7.394531 7.859375-15.769531 11.367188-27.144531 11.367188-1.183594 0-2.40625 0-3.484375-.070313-23.992188-1.535156-46.480469-11.015625-63.367188-19.09375-47.050781-22.828125-88.6875-55.4375-122.125-95.648437-28.167969-33.949219-47.085937-65.433594-59.546875-99.097657-7.46875-19.988281-10.261718-35.429687-9.066406-50.039062zm0 0" fill="#2f55d4"/><path d="m240.648438 212c58.539062 0 106-47.457031 106-106s-47.460938-106-106-106c-58.542969 0-106 47.457031-106 106 .0625 58.515625 47.484374 105.933594 106 106zm0-200c51.914062 0 94 42.085938 94 94s-42.085938 94-94 94c-51.917969 0-94-42.085938-94-94 .058593-51.890625 42.109374-93.941406 94-94zm0 0" fill="#2eca8b"/><path d="m215.648438 150.761719h8.230468v6.6875c0 3.316406 2.683594 6 6 6 3.3125 0 6-2.683594 6-6v-6.6875h6.199219v6.6875c0 3.316406 2.6875 6 6 6s6-2.683594 6-6v-7.5c10.351563-2.78125 17.554687-12.160157 17.570313-22.882813v-3.074218c0-6.765626-2.898438-13.207032-7.957032-17.695313 5.058594-4.484375 7.957032-10.925781 7.957032-17.691406v-3.078125c-.015626-10.71875-7.214844-20.097656-17.566407-22.882813v-8.09375c0-3.316406-2.6875-6-6-6-3.316406 0-6 2.683594-6 6v7.285157h-6.203125v-7.285157c0-3.316406-2.683594-6-6-6-3.3125 0-6 2.683594-6 6v7.285157h-8.230468c-3.316407 0-6 2.6875-6 6v76.925781c0 3.3125 2.683593 6 6 6zm44-26.769531v3.074218c-.007813 6.457032-5.238282 11.6875-11.695313 11.695313h-26.304687v-26.464844h26.304687c6.457031.007813 11.6875 5.238281 11.695313 11.695313zm-38-50.15625h26.304687c6.457031.007812 11.6875 5.238281 11.695313 11.691406v3.078125c-.007813 6.457031-5.238282 11.6875-11.695313 11.691406h-26.304687zm0 0" fill="#2eca8b"/></svg>