<?xml version="1.0" encoding="utf-8"?>
<!-- Generator: Adobe Illustrator 16.0.0, SVG Export Plug-In . SVG Version: 6.00 Build 0)  -->
<!DOCTYPE svg PUBLIC "-//W3C//DTD SVG 1.1//EN" "http://www.w3.org/Graphics/SVG/1.1/DTD/svg11.dtd">
<svg version="1.1" id="Layer_1" xmlns="http://www.w3.org/2000/svg" xmlns:xlink="http://www.w3.org/1999/xlink" x="0px" y="0px"
	 width="463px" height="463px" viewBox="0 0 463 463" enable-background="new 0 0 463 463" xml:space="preserve">
<g>
	<path fill="#D4E1F4" d="M156.913,158.173c-0.34,0.281-0.656,0.598-0.938,0.938c-0.953,0.976-1.831,2.023-2.636,3.128
		c3.476-3.3,6.928-6.721,10.576-10.416l-0.066-0.07c-2.273,2.168-4.546,4.281-6.89,6.382
		C156.945,158.149,156.937,158.161,156.913,158.173z"/>
	<path fill="#D4E1F4" d="M341.152,380.513c-1.184,0-2.406,0-3.484-0.07c-23.983-1.534-46.467-11.014-63.354-19.09
		c-47.042-22.823-88.671-55.427-122.102-95.63c-28.162-33.943-47.077-65.422-59.535-99.079
		c-7.464-19.985-10.256-35.419-9.062-50.026c0.531-8.064,4.051-15.638,9.87-21.242l-9.998,9.998
		c-5.819,5.604-9.339,13.177-9.87,21.242c-1.198,14.607,1.602,30.041,9.062,50.026c12.458,33.657,31.373,65.135,59.535,99.078
		c33.431,40.203,75.06,72.807,122.102,95.63c16.884,8.076,39.371,17.556,63.351,19.09c1.082,0.07,2.301,0.07,3.488,0.07
		c11.369,0,19.746-3.507,27.139-11.365c1.531-1.8,3.094-3.538,4.663-5.232C356.848,378.436,349.884,380.513,341.152,380.513z"/>
	<path fill="#D4E1F4" d="M373.946,362.856l0.512-0.492l-0.023-0.023C374.27,362.509,374.106,362.685,373.946,362.856z"/>
</g>
<path fill="#2F55D4" d="M132.996,283.406c34.532,41.52,77.531,75.189,126.12,98.755c17.883,8.553,41.75,18.586,67.772,20.25
	c1.46,0.102,2.952,0.102,4.269,0.102c14.61,0,26.386-4.999,35.992-15.271c0.063-0.07,0.129-0.141,0.188-0.215
	c4.995-5.745,10.287-11.221,15.853-16.411l1.902-1.851c2.948-2.867,5.737-5.577,8.521-8.577
	c10.787-11.235,10.705-23.882-0.199-34.681l-46.408-46.413c-2.801-3.034-8.565-7.979-16.435-7.979
	c-5.808,0-11.666,2.788-16.942,8.061l-28.756,28.757c-1.109,1.109-4.046,4.045-8.541,4.045c-1.938-0.031-3.844-0.519-5.554-1.425
	l-0.102-0.059c-0.227-0.145-0.457-0.281-0.684-0.41c-2.633-1.616-5.554-3.077-8.64-4.62c-3.362-1.613-6.639-3.395-9.818-5.339
	c-26.424-16.708-50.373-38.513-73.216-66.647c-0.066-0.082-0.133-0.164-0.207-0.242c-12.369-15.735-20.418-28.85-26.065-42.469
	l-0.156-0.469c-1.5-4.76-1.543-8.596,2.89-13.036c0.07-0.066,0.133-0.137,0.195-0.199l0.059-0.055
	c7.19-6.448,13.705-12.931,21.266-20.667c1.652-1.602,3.281-3.246,4.854-4.839c0.789-0.8,1.586-1.601,2.387-2.405
	c11.299-11.299,11.299-23.25,0-34.548l-22.887-22.89c-1.347-1.39-2.687-2.757-4.026-4.112c-1.34-1.352-2.659-2.699-3.96-4.042
	c-5.577-5.76-10.311-10.552-15.271-15.188l-0.184-0.184c-4.999-4.999-10.713-7.643-16.517-7.643c-5.753,0-11.6,2.628-16.887,7.6
	c-0.047,0.043-0.094,0.086-0.137,0.133L75.003,96.888c-7.826,7.612-12.575,17.836-13.341,28.725
	c-1.352,16.473,1.663,33.505,9.768,55.208C84.368,215.775,103.927,248.362,132.996,283.406z M330.568,283.113
	c3.483,0,6.526,2.922,7.67,4.18c0.07,0.078,0.145,0.152,0.219,0.227l46.491,46.49c6.253,6.198,6.331,11.162,0.23,17.638
	c-0.25,0.223-0.477,0.465-0.684,0.723c-0.496,0.526-1.012,1.034-1.512,1.554l-63.569-63.569l2.695-2.698
	C323.807,285.965,327.166,283.113,330.568,283.113z M120.698,72.486c3.227,0,6.147,2.246,8.034,4.128l0.254,0.254
	c0.047,0.047,0.098,0.094,0.145,0.141c4.804,4.491,9.439,9.182,14.919,14.841c1.327,1.367,2.667,2.738,4.03,4.112
	c1.313,1.336,2.636,2.679,4.026,4.113l22.956,22.957c6.569,6.569,6.569,11.006,0,17.579c-0.819,0.82-1.628,1.64-2.437,2.457
	l-0.25,0.25l-63.417-63.417l3.132-3.128C115.093,73.966,118.07,72.486,120.698,72.486z M73.616,126.612
	c0.531-8.061,4.051-15.638,9.87-21.242l16.988-16.989l63.441,63.441c-5.854,5.929-11.205,11.158-16.954,16.31l-0.039,0.035
	c-0.344,0.281-0.66,0.598-0.941,0.938c-10.084,10.381-6.662,21.222-5.499,24.894l0.254,0.758c0.043,0.133,0.09,0.266,0.145,0.398
	c6.116,14.817,14.751,28.92,27.995,45.736c0.102,0.121,0.199,0.242,0.309,0.359c23.624,29.065,48.471,51.643,75.942,69.015
	c3.519,2.163,7.146,4.147,10.873,5.937c2.897,1.449,5.639,2.816,7.842,4.187c0.121,0.074,0.246,0.145,0.375,0.211l0.109,0.07
	c0.336,0.211,0.676,0.41,1.004,0.574c3.397,1.772,7.17,2.71,11.002,2.737c6.279,0,12.005-2.542,17.02-7.557l17.579-17.578
	l63.526,63.522c-5.675,5.312-11.068,10.908-16.161,16.777c-7.393,7.858-15.766,11.365-27.139,11.365c-1.184,0-2.406,0-3.484-0.07
	c-23.987-1.534-46.471-11.014-63.354-19.09c-47.042-22.823-88.671-55.427-122.102-95.63c-28.163-33.943-47.077-65.421-59.535-99.078
	C75.214,156.657,72.422,141.219,73.616,126.612z"/>
</svg>
