<svg width="48" height="48" viewBox="0 0 48 48" xmlns="http://www.w3.org/2000/svg"><title>Facebook-black</title><desc>Created with Sketch.</desc><path d="M25.638 48h-22.989c-1.464 0-2.649-1.186-2.649-2.649v-42.701c0-1.463 1.186-2.649 2.649-2.649h42.702c1.463 0 2.649 1.186 2.649 2.649v42.701c0 1.463-1.186 2.649-2.649 2.649h-12.232v-18.588h6.239l.934-7.244h-7.173v-4.625c0-2.097.582-3.527 3.59-3.527l3.836-.002v-6.479c-.663-.088-2.941-.286-5.59-.286-5.531 0-9.317 3.376-9.317 9.576v5.342h-6.255v7.244h6.255v18.588z" /></svg>